<?xml version="1.0" standalone="no"?>
<!DOCTYPE svg PUBLIC "-//W3C//DTD SVG 1.1//EN" "http://www.w3.org/Graphics/SVG/1.1/DTD/svg11.dtd">
<svg xmlns="http://www.w3.org/2000/svg">
<metadata>Generated by Fontastic.me</metadata>
<defs>
<font id="dataflex-mobile" horiz-adv-x="512">
<font-face font-family="dataflex-mobile" units-per-em="512" ascent="480" descent="-32"/>
<missing-glyph horiz-adv-x="512" />

<glyph glyph-name="df-add-outlined" unicode="&#97;" d="M470 266l-204 0 0 204c0 6-5 10-10 10-5 0-10-4-10-10l0-204-204 0c-6 0-10-5-10-10 0-5 4-10 10-10l204 0 0-204c0-6 5-10 10-10 5 0 10 4 10 10l0 204 204 0c6 0 10 5 10 10 0 5-4 10-10 10z"/>
<glyph glyph-name="df-arrowsmalldown-outlined" unicode="&#98;" d="M256 176c-2 0-5 1-6 2l-153 152c-1 1-1 3 0 4 1 1 3 2 6 2l306 0c3 0 5-1 6-2 1-1 1-3 0-4l-153-152c-1-1-4-2-6-2z m-142 152l142-140 142 140z"/>
<glyph glyph-name="df-arrowsmallleft-outlined" unicode="&#99;" d="M176 256c0 2 1 5 2 6l152 153c1 1 3 1 4 0 1-1 2-3 2-6l0-306c0-3-1-5-2-6-1-1-3-1-4 0l-152 153c-1 1-2 4-2 6z m152 142l-140-142 140-142z"/>
<glyph glyph-name="df-arrowsmallright-outlined" unicode="&#100;" d="M336 256c0-2-1-5-2-6l-152-153c-1-1-3-1-4 0-1 1-2 3-2 6l0 306c0 3 1 5 2 6 1 1 3 1 4 0l152-153c1-1 2-4 2-6z m-152-142l140 142-140 142z"/>
<glyph glyph-name="df-arrowsmallrightskewed-outlined" unicode="&#101;" d="M367 145c-1-2-3-3-5-3l-217 0c-2 0-3 1-3 3 0 2 1 4 3 5l217 217c1 2 3 3 5 3 2 0 3-1 3-3l0-217c0-2-1-4-3-5z m-208 8l200 0 0 200z"/>
<glyph glyph-name="df-arrowsmallup-outlined" unicode="&#102;" d="M256 336c2 0 5-1 6-2l153-152c1-1 1-3 0-4-1-1-3-2-6-2l-306 0c-3 0-5 1-6 2-1 1-1 3 0 4l153 152c1 1 4 2 6 2z m142-152l-142 140-142-140z"/>
<glyph glyph-name="df-attachment-outlined" unicode="&#103;" d="M474 470c-25 27-58 42-92 42-35 0-68-15-93-42l-260-287c-39-41-39-110 0-152 19-21 44-31 69-31 25 0 50 10 69 31l250 276c10 11 15 26 15 42 0 16-5 31-15 42-21 23-57 23-77 0l-185-203c-4-5-4-12 0-17 4-5 11-5 15 0l185 203c12 14 34 14 46 0 6-7 10-16 10-25 0-10-4-19-10-26l-249-275c-30-32-78-32-108 0-30 33-30 86 0 119l261 286c20 23 48 35 77 35 29 0 56-12 77-35 42-46 42-122 0-169l-185-203c-4-4-4-12 0-17 4-4 11-4 15 0l185 203c51 56 51 147 0 203z"/>
<glyph glyph-name="df-calendar-outlined" unicode="&#104;" d="M501 469l-74 0 0 32c0 6-5 11-11 11l-64 0c-6 0-11-5-11-11l0-32-170 0 0 32c0 6-5 11-11 11l-64 0c-6 0-11-5-11-11l0-32-74 0c-6 0-11-4-11-10l0-448c0-6 5-11 11-11l490 0c6 0 11 5 11 11l0 448c0 6-5 10-11 10z m-138 22l42 0 0-64-42 0z m-256 0l42 0 0-64-42 0z m-22-43l0-32c0-6 5-11 11-11l64 0c6 0 11 5 11 11l0 32 170 0 0-32c0-6 5-11 11-11l64 0c6 0 11 5 11 11l0 32 64 0 0-85-470 0 0 85z m-64-427l0 320 470 0 0-320z m29 275l0-67 118 0 0 67z m105-53l-91 0 0 39 91 0z m-105-36l0-67 118 0 0 67z m105-53l-91 0 0 38 91 0z m39 142l0-67 118 0 0 67z m105-53l-91 0 0 39 91 0z m40 53l0-67 118 0 0 67z m104-53l-90 0 0 39 90 0z m-249-36l0-67 118 0 0 67z m105-53l-91 0 0 38 91 0z m40 53l0-67 118 0 0 67z m104-53l-90 0 0 38 90 0z m-393-35l0-67 118 0 0 67z m105-53l-91 0 0 38 91 0z m39 53l0-67 118 0 0 67z m105-53l-91 0 0 38 91 0z m40 53l0-67 118 0 0 67z m104-53l-90 0 0 38 90 0z"/>
<glyph glyph-name="df-check-outlined" unicode="&#105;" d="M169 60c-3 0-6 1-8 3l-117 119c-4 5-4 12 0 17 5 5 12 5 17 0l107-110 283 359c4 5 11 6 16 2 5-4 6-12 2-17l-291-369c-2-3-5-4-9-4 0 0 0 0 0 0z"/>
<glyph glyph-name="df-chevrondown-outlined" unicode="&#106;" d="M256 143c-2 0-5 1-6 3l-184 210c-3 3-3 8 1 11 3 3 8 3 11-1l178-203 178 203c3 4 8 4 11 1 4-3 4-8 1-11l-184-210c-1-2-4-3-6-3z"/>
<glyph glyph-name="df-chevronfatdown-outlined" unicode="&#107;" d="M256 123c-2 0-5 1-6 3l-184 214c-3 4-3 9 1 12l41 35c3 3 8 3 11-1l137-159 137 159c2 4 8 4 11 1l41-35c2-2 3-4 3-6 0-2-1-4-2-6l-184-214c-1-2-4-3-6-3z m-173 222l173-202 173 202-29 25-138-161c-1-1-4-2-6-2-2 0-5 1-6 2l-138 161z"/>
<glyph glyph-name="df-chevronfatleft-outlined" unicode="&#108;" d="M123 256c0 2 1 5 3 6l214 184c4 3 9 3 12-1l35-41c3-3 3-8-1-11l-159-137 159-137c4-2 4-8 1-11l-35-41c-2-2-4-3-6-3-2 0-4 1-6 2l-214 184c-2 1-3 4-3 6z m222 173l-202-173 202-173 25 29-161 138c-1 1-2 4-2 6 0 2 1 5 2 6l161 138z"/>
<glyph glyph-name="df-chevronfatright-outlined" unicode="&#109;" d="M389 256c0-2-1-5-3-6l-214-184c-4-3-9-3-12 1l-35 41c-3 3-3 8 1 11l159 137-159 137c-4 3-4 8-1 11l35 41c2 2 4 3 6 3 2 0 4-1 6-2l214-184c2-1 3-4 3-6z m-222-173l202 173-202 173-25-29 161-138c1-1 2-4 2-6 0-2-1-5-2-6l-161-138z"/>
<glyph glyph-name="df-chevronfatup-outlined" unicode="&#110;" d="M256 389c2 0 5-1 6-3l184-214c3-4 3-9-1-12l-41-35c-3-3-8-3-11 1l-137 159-137-159c-2-4-8-4-11-1l-41 35c-2 2-3 4-3 6 0 2 1 4 2 6l184 214c1 2 4 3 6 3z m173-222l-173 202-173-202 29-25 138 161c1 1 4 2 6 2 2 0 5-1 6-2l138-161z"/>
<glyph glyph-name="df-chevronleft-outlined" unicode="&#111;" d="M143 256c0 2 1 5 3 6l210 184c3 3 8 3 11-1 3-3 3-8-1-11l-203-178 203-178c4-3 4-8 1-11-3-4-8-4-11-1l-210 184c-2 1-3 4-3 6z"/>
<glyph glyph-name="df-chevronright-outlined" unicode="&#112;" d="M369 256c0-2-1-5-3-6l-210-184c-3-3-8-3-11 1-3 3-3 8 1 11l203 178-203 178c-4 3-4 8-1 11 3 4 8 4 11 1l210-184c2-1 3-4 3-6z"/>
<glyph glyph-name="df-chevronup-outlined" unicode="&#113;" d="M256 369c2 0 5-1 6-3l184-210c3-3 3-8-1-11-3-3-8-3-11 1l-178 203-178-203c-3-4-8-4-11-1-4 3-4 8-1 11l184 210c1 2 4 3 6 3z"/>
<glyph glyph-name="df-clear-outlined" unicode="&#114;" d="M405 0c-2 0-5 1-7 3l-142 142-142-142c-4-4-11-4-15 0l-96 96c-4 4-4 11 0 15l142 142-142 142c-4 4-4 11 0 15l96 96c4 4 11 4 15 0l142-142 142 142c4 4 11 4 15 0l96-96c4-4 4-11 0-15l-142-142 142-142c4-4 4-11 0-15l-96-96c-2-2-5-3-8-3z m-149 171c3 0 5-1 8-3l141-142 81 81-142 141c-4 5-4 11 0 16l142 141-81 81-141-142c-5-4-11-4-16 0l-141 142-81-81 142-141c4-5 4-11 0-16l-142-141 81-81 141 142c3 2 5 3 8 3z"/>
<glyph glyph-name="df-close-outlined" unicode="&#115;" d="M269 256l208 208c4 4 4 10 0 13-3 4-9 4-13 0l-208-208-208 208c-4 4-10 4-13 0-4-3-4-9 0-13l208-208-208-208c-4-4-4-10 0-13 2-2 4-3 6-3 3 0 5 1 7 3l208 208 208-208c2-2 4-3 7-3 2 0 4 1 6 3 4 3 4 9 0 13z"/>
<glyph glyph-name="df-completed-outlined" unicode="&#116;" d="M209 119c-3 0-6 1-8 4l-116 119c-5 4-5 12 0 16 4 5 12 5 16 0l108-109 282 359c4 5 12 5 17 1 5-4 5-11 1-16l-290-369c-3-3-6-5-9-5 0 0 0 0-1 0z m222-119l-419 0c-7 0-12 5-12 12l0 429c0 6 5 11 12 11l302 0c7 0 12-5 12-11 0-7-5-12-12-12l-291 0 0-405 396 0 0 250c0 6 5 12 12 12 6 0 11-6 11-12l0-262c0-7-5-12-11-12z"/>
<glyph glyph-name="df-create-outlined" unicode="&#117;" d="M496 496c-21 21-57 21-77 0l-354-353c-1-1-1-2-2-3l-62-124c-2-4-1-9 2-13 2-2 5-3 8-3 2 0 3 1 5 1l124 62c1 1 2 1 2 2l323 323 31 31c21 21 21 56 0 77z m-361-407l-47 46 307 307 47-46z m-59 27l40-40-81-40z m405 318l-24-23-46 47 23 23c13 12 34 12 47 0 12-13 12-34 0-47z"/>
<glyph glyph-name="df-customers-outlined" unicode="&#118;" d="M224 231l0 30c8 6 20 20 21 52 9 5 14 19 14 31 0 8-1 14-5 19-1 2-3 4-5 6 5 11 12 29 7 50-8 29-45 40-75 40-26 0-59-9-71-31-13 0-19-6-23-10-9-14 0-35 6-49-2-2-4-4-6-6-3-5-5-12-5-19 0-13 5-26 14-31 2-32 13-46 21-52l0-30c-40-16-117-50-117-71l0-96c0-6 5-11 11-11l320 0c6 0 10 5 10 11l0 96c0 21-77 55-117 71z m96-156l-299 0 0 83c9 9 56 34 111 56 4 2 7 6 7 10l0 43c0 4-3 8-7 10 0 0-15 7-15 43 0 6-3 10-9 10-2 2-6 12-4 19 1 3 2 3 3 3 6 0 10 5 10 11 0 3-1 6-4 13-9 21-9 28-8 30 0 0 4 1 10 0 6-2 11 2 13 7 3 14 26 24 53 24 28 0 51-10 54-24 4-15-3-30-7-39-2-5-3-8-3-11 0-6 5-11 11-11 0 0 2-3 2-7 0-8-3-14-3-14-6 0-11-5-11-11 0-36-14-43-14-43-4-2-7-6-7-10l0-43c0-4 2-8 6-10 55-22 103-47 111-56z m127 124c-11 3-21 7-31 11l0 18c8 6 19 17 21 43 7 6 11 18 11 30 0 5-1 12-4 18-1 2-2 4-3 5 5 10 12 25 6 42-7 23-39 31-63 31-21 0-48-6-59-23-8 0-15-2-19-7-10-11-4-29 1-41-2-2-4-4-5-7-3-6-4-13-4-18 0-12 4-24 12-30 1-26 13-37 21-43l0-15c0-6 4-10 10-10 6 0 11 4 11 10l0 22c0 4-3 8-7 10-1 0-14 5-14 32 0 5-4 9-8 11-3 4-5 19-3 21 6 0 11 5 11 11 0 3-1 6-3 10-5 13-7 21-6 23 0 0 1 0 7-1 5-1 10 2 12 7 3 10 22 17 43 17 21 0 40-7 43-17 4-10-3-21-7-28-2-4-4-7-4-11 0-6 3-10 9-10 3-3 2-18-1-22-5-2-8-6-8-11 0-27-13-32-14-32-4-1-7-6-7-10l0-32c0-5 2-9 6-10 13-5 26-10 38-14 19-7 45-16 52-22l0-82-107 0c-6 0-11-5-11-11 0-6 5-11 11-11l117 0c6 0 11 5 11 11l0 96c0 15-19 22-65 39z"/>
<glyph glyph-name="df-dashboard-outlined" unicode="&#119;" d="M465 482l-418 0c-7 0-12-5-12-12l0-428c0-7 5-12 12-12l418 0c7 0 12 5 12 12l0 428c0 7-5 12-12 12z m-407-428l0 404 396 0 0-404-396 0z m306 317l-82 0c-4 0-7-3-7-7l0-82c0-4 3-7 7-7l82 0c4 0 7 3 7 7l0 82c0 4-3 7-7 7z m-7-82l-68 0 0 68 68 0 0-68z m-127 82l-82 0c-4 0-7-3-7-7l0-82c0-4 3-7 7-7l82 0c4 0 7 3 7 7l0 82c0 4-3 7-7 7z m-7-82l-68 0 0 68 69 0 0-68z m7-52l-82 0c-4 0-7-3-7-7l0-82c0-4 3-7 7-7l82 0c4 0 7 3 7 7l0 82c0 4-3 7-7 7z m-7-82l-68 0 0 68 69 0 0-68z"/>
<glyph glyph-name="df-delete-outlined" unicode="&#120;" d="M491 448l-139 0 0 53c0 6-5 11-11 11l-170 0c-6 0-11-5-11-11l0-53-139 0c-6 0-10-5-10-11 0-6 4-10 10-10l54 0 0-416c0-6 4-11 10-11l342 0c6 0 10 5 10 11l0 416 54 0c6 0 10 4 10 10 0 6-4 11-10 11z m-310 43l150 0 0-43-150 0z m235-470l-320 0 0 406 320 0z m-245 342c-6 0-11-5-11-11l0-235c0-6 5-10 11-10 6 0 10 4 10 10l0 235c0 6-4 11-10 11z m86 0c-6 0-11-5-11-11l0-235c0-6 5-10 11-10 6 0 10 4 10 10l0 235c0 6-4 11-10 11z m74-11l0-235c0-6 4-10 10-10 6 0 11 4 11 10l0 235c0 6-5 11-11 11-6 0-10-5-10-11z"/>
<glyph glyph-name="df-demo-outlined" unicode="&#121;" d="M388 196l-89 30 0 123c0 24-20 43-44 43-24 0-43-19-43-43l0-205c-32 43-54 52-77 52-11 0-19-5-24-14-8-14-4-34 4-46l91-136 189 0 23 128c6 27-2 58-30 68z m9-63l-20-111-160 0-83 126c-5 7-7 18-4 24 1 1 2 2 5 2 16 0 36-5 78-71l20-31 0 277c0 11 10 21 22 21 12 0 22-9 22-21l0-139 104-35c15-5 20-25 16-42z m-44 237l66 0 0-21-66 0z m14 106l16-15-44-44-15 16z m-112 36l22 0 0-65-22 0z m-112-36l44-43-16-16-43 44z m-51-106l65 0 0-21-65 0z"/>
<glyph glyph-name="df-document-document" unicode="&#122;" d="M447 377c0 2-1 3-2 4l-128 128c-1 1-2 2-4 2-1 1-2 1-4 1l-234 0c-6 0-11-5-11-11l0-490c0-6 5-11 11-11l362 0c6 0 11 5 11 11l0 362c0 2 0 3-1 4z m-127 99l92-92-92 0z m-235-455l0 470 214 0 0-118c0-6 4-10 10-10l118 0 0-342-342 0z m75 320l96 0c6 0 11 5 11 11 0 6-5 11-11 11l-96 0c-6 0-11-5-11-11 0-6 5-11 11-11z m192-42l-192 0c-6 0-11-5-11-11 0-6 5-11 11-11l192 0c6 0 11 5 11 11 0 6-5 11-11 11z m0-64l-192 0c-6 0-11-5-11-11 0-6 5-11 11-11l192 0c6 0 11 5 11 11 0 6-5 11-11 11z m0-64l-192 0c-6 0-11-5-11-11 0-6 5-11 11-11l192 0c6 0 11 5 11 11 0 6-5 11-11 11z m0-64l-192 0c-6 0-11-5-11-11 0-6 5-11 11-11l192 0c6 0 11 5 11 11 0 6-5 11-11 11z"/>
<glyph glyph-name="df-edit-outlined" unicode="&#65;" d="M437 17l-419 0c-7 0-12 6-12 12l0 429c0 7 5 12 12 12l302 0c7 0 12-5 12-12 0-7-5-12-12-12l-291 0 0-405 396 0 0 250c0 7 5 12 12 12 6 0 11-5 11-12l0-262c0-6-5-12-11-12z m57 466c-16 15-43 15-58 0l-265-265c-1-1-2-2-2-2l-46-93c-2-3-1-7 1-10 2-1 4-2 6-2 1 0 2 0 4 1l92 46c1 1 2 1 3 2l242 242 23 23c16 16 16 42 0 58z m-271-306l-35 35 230 230 35-34z m-44 21l30-30-61-30z m303 239l-17-18-35 35 17 17c10 10 26 10 35 0 10-9 10-25 0-34z"/>
<glyph glyph-name="df-file-outlined" unicode="&#66;" d="M447 377c0 2-1 3-2 4l-128 128c-1 1-2 2-4 2-1 1-2 1-4 1l-234 0c-6 0-11-5-11-11l0-490c0-6 5-11 11-11l362 0c6 0 11 5 11 11l0 362c0 2 0 3-1 4z m-127 99l92-92-92 0z m-235-455l0 470 214 0 0-118c0-6 4-10 10-10l118 0 0-342-342 0z"/>
<glyph glyph-name="df-files-outlined" unicode="&#67;" d="M447 377c0 2-1 3-2 4l-128 128c-1 1-2 2-4 2-1 1-2 1-4 1l-170 0c-6 0-11-5-11-11l0-53-53 0c-6 0-11-5-11-11l0-426c0-6 5-11 11-11l298 0c6 0 11 5 11 11l0 53 53 0c6 0 11 5 11 11l0 298c0 2 0 3-1 4z m-127 99l92-92-92 0z m43-455l-278 0 0 406 43 0 0-352c0-6 5-11 11-11l224 0z m-214 64l0 406 150 0 0-118c0-6 4-10 10-10l118 0 0-278-278 0z"/>
<glyph glyph-name="df-find-outlined" unicode="&#68;" d="M420 309l-328 0c-6 0-11 5-11 11 0 6 5 11 11 11l328 0c6 0 11-5 11-11 0-6-5-11-11-11z m0-128l-328 0c-6 0-11 5-11 11 0 6 5 11 11 11l328 0c6 0 11-5 11-11 0-6-5-11-11-11z"/>
<glyph glyph-name="df-findfirst-outlined" unicode="&#69;" d="M455 495c-3 1-7 1-10 0l-346-208 0 98 0 0c0 12-11 22-24 22-12 0-23-10-23-22l-1-258c0-12 11-22 24-22 13 0 23 10 23 22l1 99 346-209c2-1 4-1 5-1 2 0 4 0 5 1 4 2 6 5 6 9l0 460c0 4-2 7-6 9z m-372-111l0-255c0-5-4-8-8-8-4 0-8 3-8 8l1 255c0 4 3 7 7 7 5 0 8-3 8-7z m358-340l-342 205 0 14 342 205z"/>
<glyph glyph-name="df-findlast-outlined" unicode="&#70;" d="M57 17c3-1 7-1 10 0l346 208 0-98 0 0c0-12 11-22 24-22 12 0 23 10 23 22l1 258c0 12-11 22-24 22-13 0-23-10-23-22l-1-99-346 209c-2 1-4 1-5 1-2 0-4 0-5-1-4-2-6-5-6-9l0-460c0-4 2-7 6-9z m372 111l0 255c0 5 4 8 8 8 4 0 8-3 8-8l-1-255c0-4-3-7-7-7-5 0-8 3-8 7z m-358 340l342-205 0-14-342-205z"/>
<glyph glyph-name="df-findnext-outlined" unicode="&#71;" d="M64 496c2 0 4 0 6-1l383-230c3-2 5-5 5-9 0-4-2-7-5-9l-384-230c-3-1-6-1-10 0-3 2-5 5-5 9l0 460c0 4 2 7 5 9 2 1 4 1 5 1z m364-240l-354 212 0-424z"/>
<glyph glyph-name="df-findprevious-outlined" unicode="&#72;" d="M448 16c-2 0-4 0-6 1l-383 230c-3 2-5 5-5 9 0 4 2 7 5 9l384 230c3 1 6 1 10 0 3-2 5-5 5-9l0-460c0-4-2-7-5-9-2-1-4-1-5-1z m-364 240l354-212 0 424z"/>
<glyph glyph-name="df-folderclosed-outlined" unicode="&#73;" d="M501 427l-294 0-39 39c-2 2-5 3-8 3l-149 0c-6 0-11-4-11-10l0-406c0-6 5-10 11-10l490 0c6 0 11 4 11 10l0 363c0 6-5 11-11 11z m-10-363l-470 0 0 384 135 0 39-40c2-2 5-3 8-3l288 0z"/>
<glyph glyph-name="df-folderopen-outlined" unicode="&#74;" d="M501 427l-294 0-39 39c-2 2-5 3-8 3l-149 0c-6 0-11-4-11-10l0-406c0-6 5-10 11-10l490 0c6 0 11 4 11 10l0 363c0 6-5 11-11 11z m-345 21l39-40c2-2 5-3 8-3l288 0 0-30-470 0 0 73z"/>
<glyph glyph-name="df-goback-outlined" unicode="&#75;" d="M504 264l-475 0 185 163c4 3 4 8 1 11-3 4-8 4-11 1l-201-177c0 0 0 0 0 0-1-1-1-1-2-2 0 0 0-1 0-1-1-1-1-2-1-3 0-1 0-2 1-3 0 0 0-1 0-1 1-1 1-1 2-2 0 0 0 0 0 0l201-177c1-1 3-2 5-2 2 0 4 1 6 3 3 3 3 8-1 11l-185 163 475 0c4 0 8 4 8 8 0 4-4 8-8 8z"/>
<glyph glyph-name="df-goforward-outlined" unicode="&#76;" d="M8 248l475 0-185-163c-4-3-4-8-1-11 3-4 8-4 11-1l201 177c0 0 0 0 0 0 1 1 1 1 2 2 0 0 0 1 0 1 1 1 1 2 1 3 0 1 0 2-1 3 0 0 0 1 0 1-1 1-1 1-2 2 0 0 0 0 0 0l-201 177c-1 1-3 2-5 2-2 0-4-1-6-3-3-3-3-8 1-11l185-163-475 0c-4 0-8-4-8-8 0-4 4-8 8-8z"/>
<glyph glyph-name="df-info-outlined" unicode="&#77;" d="M280 124l-48 0 0 175 48 0 0-175z m-24 213c-16 0-26 11-26 26 0 14 10 25 26 25 16 0 26-11 26-25 0-14-10-26-26-26z m0 175c-141 0-256-115-256-256 0-141 115-256 256-256 141 0 256 115 256 256 0 141-115 256-256 256z m0-490c-129 0-234 105-234 234 0 129 105 234 234 234 129 0 234-105 234-234 0-129-105-234-234-234z"/>
<glyph glyph-name="df-list-outlined" unicode="&#78;" d="M53 373c-29 0-53 24-53 53 0 30 24 53 53 53 30 0 53-23 53-53 0-29-24-53-53-53z m0 85c-17 0-32-14-32-32 0-17 15-32 32-32 18 0 32 15 32 32 0 18-14 32-32 32z m448-41l-319 0c-6 0-10 5-10 11 0 6 4 10 10 10l319 0c6 0 11-4 11-10 0-6-5-11-11-11z m-448-214c-29 0-53 24-53 53 0 29 24 53 53 53 30 0 53-24 53-53 0-29-24-53-53-53z m0 85c-17 0-32-14-32-32 0-18 15-32 32-32 18 0 32 14 32 32 0 18-14 32-32 32z m448-41l-319 0c-6 0-10 5-10 11 0 5 4 10 10 10l319 0c6 0 11-5 11-10 0-6-5-11-11-11z m-448-214c-29 0-53 23-53 53 0 29 24 53 53 53 30 0 53-24 53-53 0-30-24-53-53-53z m0 85c-17 0-32-15-32-32 0-18 15-32 32-32 18 0 32 14 32 32 0 17-14 32-32 32z m448-41l-319 0c-6 0-10 5-10 10 0 6 4 11 10 11l319 0c6 0 11-5 11-11 0-5-5-10-11-10z"/>
<glyph glyph-name="df-menu-outlined" unicode="&#80;" d="M416 370l-320 0c-5 0-10 4-10 10 0 6 5 11 10 11l320 0c5 0 10-5 10-11 0-6-5-10-10-10z m0-128l-320 0c-5 0-10 4-10 10 0 6 5 11 10 11l320 0c5 0 10-5 10-11 0-6-5-10-10-10z m0-121l-320 0c-5 0-10 5-10 11 0 6 5 10 10 10l320 0c5 0 10-4 10-10 0-6-5-11-10-11z"/>
<glyph glyph-name="df-minus-outlined" unicode="&#81;" d="M471 247l-430 0c-5 0-9 4-9 9 0 5 4 9 9 9l430 0c5 0 9-4 9-9 0-5-4-9-9-9z"/>
<glyph glyph-name="df-orders-outlined" unicode="&#82;" d="M448 469l-43 0c-6 0-10-4-10-10 0-6 4-11 10-11l32 0 0-427-362 0 0 427 32 0c6 0 10 5 10 11 0 6-4 10-10 10l-43 0c-6 0-11-4-11-10l0-448c0-6 5-11 11-11l384 0c6 0 11 5 11 11l0 448c0 6-5 10-11 10z m-299-64l214 0c6 0 10 5 10 11l0 43c0 6-4 10-10 10l-55 0c-5 25-26 43-52 43-26 0-47-18-52-43l-55 0c-6 0-10-4-10-10l0-43c0-6 4-11 10-11z m11 43l53 0c6 0 11 5 11 11 0 17 14 32 32 32 18 0 32-15 32-32 0-6 5-11 11-11l53 0 0-21-192 0z m-43-32c0 6-4 11-10 11-6 0-11-5-11-11l0-363c0-6 5-10 11-10l298 0c6 0 11 4 11 10l0 363c0 6-5 11-11 11-6 0-10-5-10-11l0-352-278 0z m96-96l128 0c6 0 11 5 11 11 0 6-5 10-11 10l-128 0c-6 0-10-4-10-10 0-6 4-11 10-11z m0-64l128 0c6 0 11 5 11 11 0 6-5 10-11 10l-128 0c-6 0-10-4-10-10 0-6 4-11 10-11z m0-64l128 0c6 0 11 5 11 11 0 6-5 10-11 10l-128 0c-6 0-10-4-10-10 0-6 4-11 10-11z m0-64l128 0c6 0 11 5 11 11 0 6-5 10-11 10l-128 0c-6 0-10-4-10-10 0-6 4-11 10-11z m-53 192l11 0c6 0 10 5 10 11 0 6-4 10-10 10l-11 0c-6 0-11-4-11-10 0-6 5-11 11-11z m0-64l11 0c6 0 10 5 10 11 0 6-4 10-10 10l-11 0c-6 0-11-4-11-10 0-6 5-11 11-11z m0-64l11 0c6 0 10 5 10 11 0 6-4 10-10 10l-11 0c-6 0-11-4-11-10 0-6 5-11 11-11z m0-64l11 0c6 0 10 5 10 11 0 6-4 10-10 10l-11 0c-6 0-11-4-11-10 0-6 5-11 11-11z"/>
<glyph glyph-name="df-print-outlined" unicode="&#83;" d="M459 363l-406 0c-29 0-53-24-53-54l0-128c0-29 24-53 53-53l54 0 0-96c0-6 4-11 10-11l278 0c6 0 10 5 10 11l0 96 54 0c29 0 53 24 53 53l0 128c0 30-24 54-53 54z m-75-320l-256 0 0 149 256 0z m107 138c0-17-15-32-32-32l-54 0 0 54c0 6-4 10-10 10l-278 0c-6 0-10-4-10-10l0-54-54 0c-17 0-32 15-32 32l0 128c0 18 15 32 32 32l406 0c17 0 32-14 32-32l0-128z m-374 203c6 0 11 5 11 11l0 74 192 0 0-53c0-6 5-11 11-11l53 0 0-10c0-6 5-11 11-11 6 0 10 5 10 11l0 21c0 1 0 3-1 4 0 1-1 3-2 4l-64 64c-1 1-2 1-3 2-2 0-3 1-4 1l-214 0c-6 0-10-5-10-11l0-85c0-6 4-11 10-11z m224 70l28-27-28 0z m-266-134c-18 0-32-14-32-32 0-18 14-32 32-32 17 0 32 14 32 32 0 18-15 32-32 32z m0-43c-6 0-11 5-11 11 0 6 5 11 11 11 6 0 10-5 10-11 0-6-4-11-10-11z"/>
<glyph glyph-name="df-products-outlined" unicode="&#84;" d="M501 469l-54 0c-11 0-20-8-21-18l-8-58c0-5-5-9-10-9l-365 0c-14 0-27-6-35-17-8-11-10-26-6-38l33-107c6-18 22-30 41-30l308 0c6 0 11-5 11-11 0-6-5-10-11-10l-299 0c-6 0-10-5-10-11 0-6 4-11 10-11l299 0c18 0 32 15 32 32 0 18-14 32-32 32l-308 0c-9 0-18 6-20 15l-34 107c-2 6-1 14 3 19 4 5 11 9 18 9l365 0c16 0 30 12 32 28l7 57 54 0c6 0 11 5 11 11 0 6-5 10-11 10z m-96-137l-10-96c-1-6 3-11 9-12 1 0 1 0 1 0 6 0 10 4 11 9l11 96c0 6-4 12-10 12-6 1-11-3-12-9z m-277-204c-24 0-43-19-43-43 0-23 19-42 43-42 24 0 43 19 43 42 0 24-19 43-43 43z m0-64c-12 0-21 10-21 21 0 12 9 22 21 22 12 0 21-10 21-22 0-11-9-21-21-21z m235 64c-24 0-43-19-43-43 0-23 19-42 43-42 23 0 42 19 42 42 0 24-19 43-42 43z m0-64c-12 0-22 10-22 21 0 12 10 22 22 22 11 0 21-10 21-22 0-11-10-21-21-21z"/>
<glyph glyph-name="df-recordadd-outlined" unicode="&#85;" d="M395 235c-65 0-118-53-118-118 0-64 53-117 118-117 64 0 117 53 117 117 0 65-53 118-117 118z m0-214c-53 0-96 43-96 96 0 53 43 96 96 96 53 0 96-43 96-96 0-53-43-96-96-96z m53 107l-43 0 0 43c0 6-4 10-10 10-6 0-11-4-11-10l0-43-43 0c-6 0-10-5-10-11 0-6 4-10 10-10l43 0 0-43c0-6 5-11 11-11 6 0 10 5 10 11l0 43 43 0c6 0 11 4 11 10 0 6-5 11-11 11z m-150 101l2 10c-14 5-29 10-44 15l0 40c10 7 29 25 32 63 8 5 13 15 13 29 0 12-4 22-10 28 5 13 13 36 7 59-7 29-47 39-79 39-29 0-64-8-76-30-11 1-20-2-26-8-14-16-6-45-2-61-2-2-4-5-6-8-3-5-4-12-4-19 0-14 5-25 13-30 2-37 21-55 31-62l0-40c-13-5-27-9-40-13-50-17-90-30-98-55-10-32-11-88-11-90 0-3 1-5 3-8 2-2 5-3 8-3l224 0 0 22-213 0c0 17 3 52 9 72 5 15 48 29 85 41 16 6 32 11 48 17 4 1 7 5 7 10l0 53c0 4-3 8-7 10-1 0-25 12-25 54 0 6-4 11-10 11-1 0-3 4-3 11 0 6 2 10 2 10 6 0 11 5 11 11 0 3-1 5-3 11-2 8-10 34-3 41 2 2 7 3 14 1 6-1 11 3 13 8 3 13 28 23 59 23 30 0 55-10 59-23 4-18-4-37-8-48-2-5-3-8-3-12 0-6 3-10 9-10 1-1 3-5 3-12 0-7-2-11-2-11-6 0-10-5-10-11 0-42-25-54-26-54-4-2-6-5-6-10l0-53c0-5 2-9 7-10 17-7 35-13 51-18z"/>
<glyph glyph-name="df-recordlookup-outlined" unicode="&#86;" d="M312 238c-5 2-11 3-17 5-9 3-21 6-28 10l0 40c10 7 30 26 31 64 6 6 9 16 9 29 0 12-3 21-7 26 5 13 13 37 7 61-7 29-47 39-79 39-29 0-63-8-76-30-11 1-19-2-25-8-14-16-6-44-1-60-3-2-6-5-8-8-4-6-6-13-6-21 0-14 6-25 16-30 3-37 22-55 32-62l0-39c-12-4-24-8-36-12-53-17-96-31-104-57-10-31-19-85-20-87 0-3 0-6 3-9 2-2 5-3 8-3l234 0 0 21-222 0c4 18 10 51 17 72 5 15 51 30 91 43 14 4 29 9 43 14 4 1 7 6 7 10l0 54c0 4-2 8-6 9-1 1-26 12-26 55 0 6-4 10-10 10-4 0-6 7-6 11 0 4 1 7 3 9 1 2 2 2 3 2 6 0 10 5 10 10 0 3-1 6-2 12-3 8-11 34-4 41 2 2 7 3 14 1 5-1 11 3 12 8 3 13 29 23 59 23 30 0 55-10 58-23 5-18-2-38-6-49-2-5-3-8-3-11 0-4 3-8 7-10 2-5 2-19 0-24-4-2-7-6-7-10 0-43-24-54-25-55-4-1-7-5-7-9l0-54c0-4 2-7 5-9 9-6 25-10 39-15 6-1 12-3 16-4z m197-220l-58 58c11 15 18 33 18 52 0 48-38 86-85 86-47 0-85-38-85-86 0-47 38-85 85-85 20 0 38 7 52 18l58-58c2-2 5-3 7-3 3 0 6 1 8 3 4 4 4 11 0 15z m-189 110c0 36 29 65 64 65 35 0 64-29 64-65 0-17-7-33-18-44 0 0-1-1-1-1 0 0 0 0 0-1-12-11-28-18-45-18-35 0-64 29-64 64z"/>
<glyph glyph-name="df-recordremove-outlined" unicode="&#87;" d="M438 163c-4 4-10 4-15 0l-30-30-30 30c-4 4-11 4-15 0-4-4-4-11 0-15l30-30-30-31c-4-4-4-11 0-15 2-2 5-3 8-3 2 0 5 1 7 3l30 31 30-31c3-2 5-3 8-3 3 0 5 1 8 3 4 4 4 11 0 15l-31 31 31 30c4 4 4 11-1 15z m-43 72c-65 0-118-52-118-117 0-65 53-118 118-118 64 0 117 53 117 118 0 65-53 117-117 117z m0-214c-53 0-96 44-96 97 0 53 43 96 96 96 53 0 96-43 96-96 0-53-43-97-96-97z m-97 207l-1-3-2-7z m-1-3l3 13c-14 5-29 10-44 16l0 39c10 7 29 25 32 63 8 5 13 16 13 30 0 12-4 22-10 28 5 13 13 36 7 59-7 29-47 39-79 39-29 0-64-8-76-30-11 1-20-2-26-8-14-16-6-45-2-61-2-2-4-5-6-8-3-6-4-13-4-20 0-13 5-24 13-29 2-38 21-56 31-63l0-39c-13-5-27-10-40-14-50-17-90-30-98-55-10-32-11-86-11-89 0-2 1-5 3-7 2-2 5-3 8-3l224 0 0 21-213 0c0 17 3 51 9 72 5 14 48 28 85 40 16 6 32 11 48 17 4 2 7 6 7 10l0 54c0 4-3 8-7 9-1 1-25 12-25 55 0 6-4 10-10 10-1 1-3 4-3 11 0 7 2 11 2 11 6 0 11 5 11 11 0 2-1 5-3 11-2 8-10 34-3 41 2 2 7 3 14 1 6-1 11 3 13 8 3 13 28 23 59 23 30 0 55-10 59-23 4-18-4-38-8-48-2-6-3-9-3-12 0-3 0-5 2-7 2-2 4-3 7-3 1-1 3-5 3-12 0-7-2-11-2-12-6 0-10-4-10-10 0-43-25-54-26-55-4-1-6-5-6-9l0-54c0-4 2-8 7-10 18-7 35-13 52-18z"/>
<glyph glyph-name="df-remove-outlined" unicode="&#88;" d="M256 512c-141 0-256-115-256-256 0-141 115-256 256-256 141 0 256 115 256 256 0 141-115 256-256 256z m0-490c-129 0-234 105-234 234 0 129 105 234 234 234 129 0 234-105 234-234 0-129-105-234-234-234z m102 336c-4 5-11 5-15 0l-87-86-87 86c-4 5-11 5-15 0-5-4-5-11 0-15l86-87-86-87c-5-4-5-11 0-15 2-3 5-4 8-4 2 0 5 1 7 4l87 86 87-86c2-3 5-4 7-4 3 0 6 1 8 4 5 4 5 11 0 15l-86 87 86 87c5 4 5 11 0 15z"/>
<glyph glyph-name="df-report-outlined" unicode="&#89;" d="M447 377c0 2-1 3-2 4l-128 128c-1 1-2 2-4 2-1 1-2 1-4 1l-234 0c-6 0-11-5-11-11l0-490c0-6 5-11 11-11l362 0c6 0 11 5 11 11l0 362c0 2 0 3-1 4z m-127 99l92-92-92 0z m-235-455l0 470 214 0 0-118c0-6 4-10 10-10l118 0 0-342-342 0z m43 320l0-277 256 0 0 277z m85-21l0-43-64 0 0 43z m-64-128l64 0 0-43-64 0z m86 0l128 0 0-43-128 0z m128 21l-128 0 0 43 128 0z m-150 0l-64 0 0 43 64 0z m-64-85l64 0 0-43-64 0z m86-43l0 43 128 0 0-43z m128 192l-128 0 0 43 128 0z"/>
<glyph glyph-name="df-salesperson-outlined" unicode="&#90;" d="M219 341c47 0 85 39 85 86 0 47-38 85-85 85-47 0-86-38-86-85 0-47 39-86 86-86z m0 150c35 0 64-29 64-64 0-36-29-64-64-64-36 0-64 28-64 64 0 35 28 64 64 64z m128-171l-256 0 0-11c0-75 27-136 74-166l0-143 107 0 0 143c48 30 75 91 75 166z m-91-161l-5-3 0-135-64 0 0 135-6 3c-42 23-66 74-69 140l95 0-10-118 22-21 21 21-10 118 95 0c-2-66-27-117-69-140z m133 12l0 21-21 0 0-21-32 0 0-171 85 0 0 171z m11-150l-43 0 0 128 43 0z"/>
<glyph glyph-name="df-save-outlined" unicode="&#48;" d="M203 171c-3 0-6 1-8 3l-53 53c-4 4-4 11 0 15 4 4 11 4 15 0l46-46 152 142c5 4 11 4 15 0 4-4 4-11 0-15l-160-149c-2-2-5-3-7-3z m53-171c-141 0-256 115-256 256 0 141 115 256 256 256 141 0 256-115 256-256 0-141-115-256-256-256z m0 491c-129 0-235-106-235-235 0-129 106-235 235-235 129 0 235 106 235 235 0 129-106 235-235 235z"/>
<glyph glyph-name="df-settings-outlined" unicode="&#49;" d="M256 361c-59 0-106-47-106-105 0-58 47-105 106-105 59 0 106 47 106 105 0 58-47 105-106 105z m0-180c-42 0-76 33-76 75 0 42 34 75 76 75 42 0 76-33 76-75 0-42-34-75-76-75z m248 20l-38 22c2 11 2 22 2 33 0 11 0 22-2 33l38 22c7 4 10 14 6 21l-61 104c-2 4-5 6-9 7-4 1-8 1-12-1l-37-22c-17 14-34 25-57 33l0 44c0 8-7 15-15 15l-122 0c-8 0-15-7-15-15l0-44c-21-7-40-18-59-33l-39 22c-7 4-17 1-21-6l-61-104c-2-4-2-8-1-12 1-3 3-7 7-9l38-22c-2-11-3-22-3-33 0-11 1-22 3-33l-38-22c-8-4-10-14-6-21l61-104c4-7 13-10 20-6l40 23c19-16 38-27 59-34l0-44c0-8 7-15 15-15l122 0c8 0 15 7 15 15l0 44c23 8 40 19 57 33l38-22c3-2 7-2 11-1 4 1 8 3 10 7l60 104c4 7 2 17-6 21z m-73-97l-34 20c-6 3-13 2-18-2-20-18-37-30-64-38-7-2-11-8-11-14l0-40-91 0 0 40c0 6-5 12-11 14-25 7-45 19-67 38-5 4-12 5-18 2l-35-20-46 78 35 20c5 3 8 10 7 16-3 13-4 25-4 38 0 12 1 25 4 38 1 6-2 13-7 16l-35 20 46 78 35-20c6-3 13-2 18 2 22 19 42 31 66 38 7 2 12 7 12 14l0 40 91 0 0-40c0-7 4-12 11-14 27-8 44-20 64-38 5-4 12-5 18-2l33 20 46-78-35-20c-5-3-8-10-7-16 3-13 4-25 4-38 0-13-1-26-4-38-1-6 2-13 7-16l35-20z"/>
<glyph glyph-name="df-submenuhorizontal-outlined" unicode="&#50;" d="M384 256c0 35 29 64 64 64 36 0 65-29 65-64 0-35-29-64-65-64-35 0-64 29-64 64z m103 0c0 21-18 39-39 39-21 0-38-18-38-39 0-21 17-39 38-39 21 0 39 18 39 39z m-296 0c0 35 29 64 64 64 36 0 65-29 65-64 0-35-29-64-65-64-35 0-64 29-64 64z m103 0c0 21-17 39-39 39-21 0-38-18-38-39 0-21 17-39 38-39 22 0 39 18 39 39z m-295 0c0 35 29 64 65 64 35 0 64-29 64-64 0-35-29-64-64-64-36 0-65 29-65 64z m103 0c0 21-17 39-38 39-21 0-39-18-39-39 0-21 18-39 39-39 21 0 38 18 38 39z"/>
<glyph glyph-name="df-submenuvertical-outlined" unicode="&#51;" d="M256 384c-35 0-64 29-64 64 0 36 29 65 64 65 35 0 64-29 64-65 0-35-29-64-64-64z m0 103c-21 0-39-18-39-39 0-21 18-38 39-38 21 0 39 17 39 38 0 21-18 39-39 39z m0-296c-35 0-64 29-64 64 0 36 29 65 64 65 35 0 64-29 64-65 0-35-29-64-64-64z m0 103c-21 0-39-17-39-39 0-21 18-38 39-38 21 0 39 17 39 38 0 22-18 39-39 39z m0-295c-35 0-64 29-64 65 0 35 29 64 64 64 35 0 64-29 64-64 0-36-29-65-64-65z m0 103c-21 0-39-17-39-38 0-21 18-39 39-39 21 0 39 18 39 39 0 21-18 38-39 38z"/>
<glyph glyph-name="df-theme-outlined" unicode="&#52;" d="M347 19c-35 0-67 13-91 37l-91 91c-4 4-11 4-15 0-4-4-4-11 0-15 21-21 21-55 0-76-20-20-55-20-75 0-100 100-100 262 0 362 48 49 113 75 181 75 68 0 133-26 181-75 100-100 100-262 0-362-24-24-56-37-90-37z m-189 152c8 0 16-3 23-9l90-91c20-20 47-31 76-31 28 0 55 11 75 31 92 92 92 241 0 332-44 45-103 69-166 69-63 0-122-24-166-69-92-91-92-240 0-332 12-12 33-12 45 0 13 13 13 33 0 46-12 12-12 32 0 45 6 6 14 9 23 9z m189 129c-12 0-23 5-31 13-8 8-12 18-12 30 0 11 4 22 12 30 16 16 45 16 61 0 16-17 16-44 0-60-8-8-19-13-30-13z m0 64c-6 0-12-2-16-6-4-4-6-9-6-15 0-6 2-11 6-15 9-8 23-8 31 0 8 8 8 22 0 30-4 4-10 6-15 6z m58-159c-8 0-16 4-22 10-13 12-13 32 0 45 12 12 33 12 45 0 13-13 13-33 0-45-6-6-14-10-23-10z m0 43c-2 0-5-1-7-3-4-4-4-11 0-15 4-4 11-4 15 0 4 4 4 11 0 15-2 2-5 3-8 3z m-58-170c-15 0-28 6-38 16-10 10-16 23-16 38 0 14 6 27 16 37 20 20 55 20 75 0 10-10 16-23 16-37 0-15-6-28-16-38-10-10-23-16-37-16z m0 86c-9 0-17-4-23-10-6-6-9-14-9-22 0-9 3-17 9-23 12-12 33-12 45 0 6 6 10 14 10 23 0 8-4 16-10 22-6 6-14 10-22 10z m-129 159c-11 0-22 4-30 12-8 8-12 19-12 31 0 11 4 22 12 30 16 16 44 16 60 0 9-8 13-19 13-30 0-12-5-23-13-31-8-8-18-12-30-12z m0 64c-5 0-11-2-15-6-4-4-6-10-6-15 0-6 2-12 6-16 8-8 22-8 30 0 4 4 7 10 7 16 0 5-3 11-7 15-4 4-9 6-15 6z"/>
<glyph glyph-name="df-upload-outlined" unicode="&#53;" d="M448 319l0 2c0 79-64 144-144 144-53 0-100-30-124-73-11 5-23 9-36 9-44 0-80-36-80-80l0-2c-38-22-64-63-64-110 0-71 58-128 128-128l32 0 0 32-32 0c-53 0-96 43-96 96 0 33 18 65 48 82l16 9 0 19 0 3c1 26 22 47 48 47 7 0 14-2 21-6l27-13 15 26c21 35 57 57 97 57 61 0 111-50 112-111l0-1 0-21 16-9c30-17 48-49 48-82 0-53-43-96-96-96l-32 0 0-32 32 0c70 0 128 57 128 128 0 47-26 88-64 110z m-192 16l-96-128 64 0 0-160 64 0 0 160 64 0z"/>
<glyph glyph-name="df-user-outlined" unicode="&#54;" d="M256 512c-141 0-256-115-256-256 0-68 26-132 74-180 48-49 113-76 182-76 69 0 134 27 182 76 48 48 74 112 74 180 0 141-115 256-256 256z m-157-430c22 12 54 23 86 35 11 4 22 8 32 12 4 1 7 5 7 10l0 53c0 4-3 9-7 10-1 0-25 10-25 54 0 6-4 11-10 11-1 0-3 4-3 10 0 6 2 10 2 11 6 0 11 5 11 11 0 2-1 5-2 11-4 11-12 41-5 51 1 1 6 4 16 2 5-1 11 2 12 8 3 14 28 24 59 24 31 0 56-10 59-24 5-20-4-47-8-60-2-6-3-9-3-12 0-6 4-11 10-11 1-1 3-5 3-11 0-6-2-10-2-10-6 0-11-5-11-11 0-44-24-54-25-54-4-1-7-5-7-10l0-53c0-5 3-9 7-10 11-5 23-9 34-13 32-12 63-23 84-34-43-39-98-61-157-61-59 0-114 22-157 61z m330 15c-22 14-55 26-92 39-9 3-19 7-28 10l0 40c11 6 30 23 32 62 8 5 14 16 14 29 0 13-5 23-12 28 6 16 15 46 9 71-8 30-48 40-80 40-29 0-64-8-76-31-15 1-24-6-28-11-13-18-4-51 1-69-7-5-12-15-12-28 0-13 6-24 14-29 2-39 21-56 32-62l0-40c-9-3-17-6-25-9-35-13-71-26-95-40-40 44-62 100-62 159 0 129 106 235 235 235 129 0 235-106 235-235 0-59-22-115-62-159z"/>
<glyph glyph-name="df-add-filled" unicode="&#55;" d="M480 224l-192 0 0-192-64 0 0 192-192 0 0 64 192 0 0 192 64 0 0-192 192 0z"/>
<glyph glyph-name="df-arrowsmalldown-filled" unicode="&#56;" d="M415 334c-1 1-3 2-6 2l-306 0c-3 0-5-1-6-2-1-1-1-3 0-4l153-152c1-1 4-2 6-2 2 0 5 1 6 2l153 152c1 1 1 3 0 4z"/>
<glyph glyph-name="df-arrowsmallleft-filled" unicode="&#57;" d="M334 97c1 1 2 3 2 6l0 306c0 3-1 5-2 6-1 1-3 1-4 0l-152-153c-1-1-2-4-2-6 0-2 1-5 2-6l152-153c1-1 3-1 4 0z"/>
<glyph glyph-name="df-arrowsmallright-filled" unicode="&#33;" d="M183 98l151 152c3 3 3 9 0 12l-152 153c-1 1-3 1-4 0-1-1-2-3-2-6l0-306c0 0 0 0 0 0 0-4 2-7 4-7 1 0 2 1 3 2z"/>
<glyph glyph-name="df-arrowsmallrightskewed-filled" unicode="&#34;" d="M145 143l217 0c4 0 8 4 8 8l0 216c0 1-1 3-3 3-1 0-3-1-5-3l-218-216c0 0 0 0 0 0-2-3-3-6-2-8 1-1 2-1 3 0z"/>
<glyph glyph-name="df-arrowsmallup-filled" unicode="&#35;" d="M414 183l-152 151c-3 3-9 3-12 0l-153-152c-1-1-1-3 0-4 1-1 3-2 6-2l306 0c0 0 0 0 0 0 4 0 7 2 7 4 0 1-1 2-2 3z"/>
<glyph glyph-name="df-attachment-filled" unicode="&#36;" d="M279 109c-7-10-6-23 3-31 10-7 24-6 31 3l167 201c50 60 41 149-20 198-29 24-66 35-104 31-38-3-72-21-96-50l-235-284c-38-46-32-115 15-153 20-16 45-24 69-24 32 0 63 14 85 40l225 272c23 28 19 69-9 91-14 11-31 16-48 15-18-2-33-10-45-24l-166-201c-8-9-7-23 3-30 9-8 23-7 31 3l166 201c4 4 9 7 15 8 6 0 12-2 16-5 9-8 11-21 3-31l-225-272c-23-28-64-32-92-9-28 23-32 64-9 91l235 284c17 20 40 33 66 35 26 3 52-5 72-21 42-34 48-96 14-137z"/>
<glyph glyph-name="df-check-filled" unicode="&#38;" d="M465 450c-10 8-24 6-32-3l-262-333-94 96c-9 8-23 8-32 0-8-9-8-24 0-33l112-113c4-5 10-7 16-7 0 0 0 0 1 0 6 0 12 3 16 8l278 353c8 10 6 24-3 32z"/>
<glyph glyph-name="df-chevrondown-filled" unicode="&#39;" d="M442 373c-7 6-17 5-22-2l-164-195-164 195c-5 7-15 8-22 2-7-5-8-15-2-22l176-210c3-4 7-6 12-6 5 0 9 2 12 6l176 210c6 7 5 17-2 22z"/>
<glyph glyph-name="df-chevronfatdown-filled" unicode="&#40;" d="M445 352l-41 35c-3 3-9 3-11-1l-137-159-137 159c-1 2-3 3-5 3-2 0-4 0-6-2l-41-35c-4-3-4-8-1-12l184-214c1-2 4-3 6-3 2 0 5 1 6 3l184 214c1 2 2 4 2 6 0 2-1 4-3 6z"/>
<glyph glyph-name="df-chevronfatleft-filled" unicode="&#41;" d="M227 256l159 137c4 2 4 8 1 11l-35 41c-3 4-8 4-12 1l-214-184c-2-1-3-4-3-6 0-2 1-5 3-6l214-184c2-1 4-2 6-2 0 0 0 0 0 0 2 0 4 1 6 3l35 41c3 3 3 9-1 11z"/>
<glyph glyph-name="df-chevronfatright-filled" unicode="&#42;" d="M386 262l-214 184c-2 1-4 2-6 2-2 0-4-1-6-3l-35-41c-3-3-3-8 1-11l159-137-159-137c-4-2-4-8-1-11l35-41c2-2 4-3 6-3 2 0 4 1 6 2l214 184c2 1 3 4 3 6 0 2-1 5-3 6z"/>
<glyph glyph-name="df-chevronfatup-filled" unicode="&#43;" d="M446 172l-184 214c-1 2-4 3-6 3-2 0-5-1-6-3l-184-214c-1-2-2-4-2-6 0-2 1-4 3-6l41-35c2-1 3-2 5-2 3 0 5 1 6 3l137 159 137-159c1-2 3-3 5-3 2 0 4 0 6 2l41 35c4 3 4 8 1 12z"/>
<glyph glyph-name="df-chevronleft-filled" unicode="&#44;" d="M176 256l195 164c7 5 8 15 2 22-5 7-15 8-22 2l-210-176c-4-3-6-7-6-12 0-5 2-9 6-12l210-176c3-3 7-4 10-4 5 0 9 2 12 6 6 7 5 17-2 22z"/>
<glyph glyph-name="df-chevronright-filled" unicode="&#45;" d="M371 268l-210 176c-7 6-17 5-22-2-6-7-5-17 2-22l195-164-195-164c-7-5-8-15-2-22 3-4 7-6 12-6 3 0 7 1 10 4l210 176c4 3 6 7 6 12 0 5-2 9-6 12z"/>
<glyph glyph-name="df-chevronup-filled" unicode="&#46;" d="M444 161l-176 211c-6 7-18 7-24 0l-176-211c-6-7-5-17 2-22 6-6 17-5 22 2l164 195 164-195c3-4 7-6 12-6 4 0 7 1 10 4 7 5 8 15 2 22z"/>
<glyph glyph-name="df-clear-filled" unicode="&#47;" d="M367 256l142 141c2 2 3 5 3 8 0 3-1 5-3 7l-96 96c-2 2-5 3-7 3l0 0c-3 0-6-1-8-3l-142-141-141 142c-2 2-5 3-8 3l0 0c-3 0-5-1-7-3l-96-96c-4-4-4-11 0-15l141-142-142-141c-4-4-4-11 0-15l96-96c2-2 5-3 7-3l0 0c3 0 6 1 8 3l142 141 141-142c2-2 5-3 8-3 2 0 5 1 7 3l96 96c4 4 4 11 0 15z"/>
<glyph glyph-name="df-close-filled" unicode="&#58;" d="M282 256l193 192c7 7 7 19 0 27-8 7-20 7-27 0l-192-193-192 193c-7 7-19 7-27 0-7-8-7-20 0-27l193-192-193-192c-7-7-7-19 0-27 4-3 9-5 14-5 4 0 9 2 13 5l192 193 192-193c4-3 9-5 13-5 5 0 10 2 14 5 7 8 7 20 0 27z"/>
<glyph glyph-name="df-completed-filled" unicode="&#59;" d="M504 507c-10 8-24 6-32-3l-262-333-94 95c-9 9-23 9-32 0-8-8-8-23 0-32l112-114c4-4 10-6 15-6 1 0 1 0 2 0 6 0 12 3 16 8l278 353c8 10 6 24-3 32z m-81-211c-12 0-22-10-22-23l0-227-356 0 0 364 267 0c12 0 22 10 22 22 0 13-10 23-22 23l-290 0c-12 0-22-10-22-23l0-409c0-13 10-23 22-23l401 0c12 0 22 10 22 23l0 250c0 13-10 23-22 23z"/>
<glyph glyph-name="df-create-filled" unicode="&#60;" d="M3 3c2-2 5-3 8-3 2 0 3 0 5 1l116 58-73 73-58-116c-2-4-1-9 2-13z m470 392l23 24c21 21 21 56 0 77-10 10-24 16-39 16-14 0-28-6-38-16l-24-23z m-16-15l-307-307-77 77 307 307z"/>
<glyph glyph-name="df-customers-filled" unicode="&#61;" d="M447 199c-10 3-21 7-31 11l0 18c8 6 19 17 21 43 7 6 11 18 11 30 0 5-1 12-4 18-1 2-2 4-3 5 5 10 12 25 6 42-7 23-39 31-63 31-21 0-48-6-59-23-12 0-18-5-20-9-8-11-3-28 2-39-2-2-4-4-5-7-3-6-4-13-4-18 0-12 4-24 12-31 1-25 13-36 21-42l0-18c-3-1-5-2-8-3 35-21 40-35 40-47l0-107 138 0c6 0 11 5 11 11l0 96c0 15-19 22-65 39z m-150-1c0 0 0 0 0 0-24 13-53 25-73 33l0 30c4 3 9 8 13 16 0 0 0 0 0 0 3 6 5 14 7 24 0 1 0 2 0 2 1 3 1 6 1 10 1 0 2 1 3 2 0 0 0 0 0 0 3 3 6 8 8 13 0 0 0 0 0 0 1 2 2 5 2 8 0 0 0 0 0 0 1 3 1 6 1 8 0 2 0 4 0 6-1 5-2 9-5 13-1 2-3 4-5 6 1 2 2 4 3 7 1 3 2 6 3 9 0 1 0 2 1 3 0 3 1 6 1 9 0 1 0 2 0 2 0 3 0 5 0 8 0 1 0 2 0 3 0 3-1 6-1 9-1 3-2 5-4 8 0 0 0 0 0 0-4 9-11 15-21 21 0 0-1 0-1 0-3 2-5 3-8 4-2 0-3 1-4 1-2 1-4 1-7 2-2 1-3 1-5 1-3 1-6 1-9 2-1 0-2 0-3 0-4 0-8 1-13 1-3 0-7-1-10-1-10-1-21-3-30-6 0 0 0 0-1 0-1-1-3-2-5-3-3-1-7-3-10-5 0-1 0-1 0-1-2-1-4-3-5-4-1-1-2-1-2-2-1-1-3-2-4-4-1-2-3-3-4-5-1 0-3 0-5 0-2-1-4-1-6-2 0 0 0 0 0 0-2 0-4-1-5-2 0 0 0 0-1 0-1-1-2-2-3-3 0 0 0 0 0 0-1-1-2-2-3-3-1-2-1-4-2-5 0-1 0-1 0-2-1-1-1-3-1-4 0-1 0-1 0-2 0-1 0-3 0-4 0-1 0-1 0-2 0-1 0-3 0-5 1 0 1 0 1-1 0-2 1-4 1-5 0-1 0-1 0-1 2-6 5-13 7-18-2-2-4-4-6-6 0-1-1-2-2-4 0 0 0 0 0 0 0-1-1-2-1-3 0-1 0-1 0-2-1-1-1-2-1-2 0-3-1-5-1-8 0-3 1-5 1-8 0 0 0 0 0-1 1-2 1-5 2-7 0 0 0 0 0 0 2-5 5-10 8-13 0 0 0 0 0 0 1-1 2-2 3-2 0-4 1-7 1-10 0 0 0-1 0-2 2-10 4-18 7-24 0 0 0 0 0 0 5-8 9-13 13-16l0-30c-37-15-107-46-116-67 0 0 0 0 0 0-1-1-1-3-1-4l0-96c0-6 5-11 11-11l330 0 0 107c0 11-19 24-44 38z"/>
<glyph glyph-name="df-dashboard-filled" unicode="&#62;" d="M478 465c-3 11-11 19-22 19l-400 0c-13 0-23-11-23-23l0-410c0-12 10-23 23-23l400 0c13 0 23 11 23 23l0 411c0 1-1 2-1 3z m-400-391l0 364 356 0 0-364z m286 297l-82 0c-4 0-7-3-7-7l0-82c0-4 3-7 7-7l82 0c4 0 7 3 7 7l0 82c0 4-3 7-7 7z m-134 0l-82 0c-4 0-7-3-7-7l0-82c0-4 3-7 7-7l82 0c4 0 7 3 7 7l0 82c0 4-3 7-7 7z m0-134l-82 0c-4 0-7-3-7-7l0-82c0-4 3-7 7-7l82 0c4 0 7 3 7 7l0 82c0 4-3 7-7 7z"/>
<glyph glyph-name="df-delete-filled" unicode="&#63;" d="M491 448l-139 0 0 53c0 6-5 11-11 11l-170 0c-6 0-11-5-11-11l0-53-139 0c-6 0-10-5-10-11 0-6 4-10 10-10l54 0 0-416c0-6 4-11 10-11l342 0c6 0 10 5 10 11l0 416 54 0c6 0 10 4 10 10 0 6-4 11-10 11z m-310-331c0-6-4-10-10-10-6 0-11 4-11 10l0 235c0 6 5 11 11 11 6 0 10-5 10-11l0-235z m0 374l150 0 0-43-150 0z m86-374c0-6-5-10-11-10-6 0-11 4-11 10l0 235c0 6 5 11 11 11 6 0 11-5 11-11z m85 0c0-6-5-10-11-10-6 0-10 4-10 10l0 235c0 6 4 11 10 11 6 0 11-5 11-11z"/>
<glyph glyph-name="df-demo-filled" unicode="&#64;" d="M204 5c2-3 6-5 9-5l171 0c5 0 10 4 10 9l22 117c6 26-3 57-30 65l-87 30 0 120c0 24-19 43-43 43-24 0-43-19-43-43l0-200c-31 42-52 51-74 51-11 0-20-5-24-14-8-13-4-33 4-45z m233 358c0 11-9 21-21 21l-64 0c-12 0-21-10-21-21 0-12 9-22 21-22l64 0c12 0 21 10 21 22z m-91 38l42 43c9 8 9 21 0 30-8 8-21 8-30 0l-42-43c-9-8-9-22 0-30 4-4 9-6 15-6 5 0 11 2 15 6z m-69 26l0 64c0 11-9 21-21 21-12 0-21-10-21-21l0-64c0-12 9-22 21-22 12 0 21 10 21 22z m-96-32c6 0 11 2 15 6 9 8 9 22 0 30l-42 43c-9 8-22 8-30 0-9-9-9-22 0-30l42-43c4-4 10-6 15-6z m-106-32c0-12 9-22 21-22l64 0c12 0 21 10 21 22 0 11-9 21-21 21l-64 0c-12 0-21-10-21-21z"/>
<glyph glyph-name="df-document-filled" unicode="&#91;" d="M445 381l-128 128c-2 2-5 3-8 3l-234 0c-6 0-11-5-11-11l0-490c0-6 5-11 11-11l362 0c6 0 11 5 11 11l0 362c0 3-1 6-3 8z m-285-18l96 0c6 0 11-5 11-11 0-6-5-11-11-11l-96 0c-6 0-11 5-11 11 0 6 5 11 11 11z m192-278l-192 0c-6 0-11 5-11 11 0 6 5 11 11 11l192 0c6 0 11-5 11-11 0-6-5-11-11-11z m0 64l-192 0c-6 0-11 5-11 11 0 6 5 11 11 11l192 0c6 0 11-5 11-11 0-6-5-11-11-11z m0 64l-192 0c-6 0-11 5-11 11 0 6 5 11 11 11l192 0c6 0 11-5 11-11 0-6-5-11-11-11z m0 64l-192 0c-6 0-11 5-11 11 0 6 5 11 11 11l192 0c6 0 11-5 11-11 0-6-5-11-11-11z m-43 96l0 128 128-128z"/>
<glyph glyph-name="df-edit-filled" unicode="&#93;" d="M425 302c-12 0-22-10-22-22l0-223-356 0 0 357 267 0c12 0 22 9 22 22 0 12-10 22-22 22l-289 0c-12 0-22-10-22-22l0-401c0-12 9-22 22-22l401 0c12 0 22 10 22 22l0 245c0 12-10 22-23 22z m-297-184c1-2 4-3 6-3 1 0 2 0 3 1l88 44-55 55-44-88c-1-3-1-7 2-9z m352 294l18 17c16 16 16 42 0 58-8 8-19 12-30 12-10 0-21-4-29-12l-17-17z m-12-12l-230-230-58 58 230 230z"/>
<glyph glyph-name="df-file-filled" unicode="&#94;" d="M445 381l-128 128c-2 2-5 3-8 3l-234 0c-6 0-11-5-11-11l0-490c0-6 5-11 11-11l362 0c6 0 11 5 11 11l0 362c0 3-1 6-3 8z m-136-8l0 128 128-128z"/>
<glyph glyph-name="df-files-filled" unicode="&#95;" d="M107 53l0 395-32 0c-6 0-11-5-11-11l0-426c0-6 5-11 11-11l298 0c6 0 11 5 11 11l0 32-267 0c-6 0-10 4-10 10z m338 328l-128 128c-2 2-5 3-8 3l-170 0c-6 0-11-5-11-11l0-437 309 0c6 0 11 5 11 11l0 298c0 3-1 6-3 8z m-136-8l0 128 128-128z"/>
<glyph glyph-name="df-find-filled" unicode="&#96;" d="M412 224l-311 0 0 0c-12 0-21-14-21-32 0-17 9-32 20-32l311 0 0 0c12 0 21 15 21 32 0 18-9 32-20 32z m-1 128l-310 0c-12 0-21-14-21-32 0-17 9-32 20-32l311 0c11 0 21 14 21 32 0 17-10 32-21 32z"/>
<glyph glyph-name="df-findfirst-filled" unicode="&#123;" d="M456 495c-3 1-7 1-10 0l-348-209 0 99c0 12-11 22-24 22-13 0-23-10-23-22l0-258c0-12 10-22 23-22 13 0 24 10 24 22l0 99 348-209c2-1 3-1 5-1 2 0 3 0 5 1 3 2 5 5 5 9l0 460c0 4-2 7-5 9z"/>
<glyph glyph-name="df-findlast-filled" unicode="&#124;" d="M438 407c-13 0-23-10-24-22l0-100-348 210c-2 1-4 1-5 1-2 0-4 0-5-1-3-2-5-5-5-9l0-460c0-4 2-7 5-9 3-1 7-1 10 0l348 210 0-100c0-12 11-22 24-22 13 0 23 10 23 22l0 258c0 12-10 22-23 22z"/>
<glyph glyph-name="df-findnext-filled" unicode="&#125;" d="M59 17c4-1 7-1 10 0l384 230c3 2 5 5 5 9 0 4-2 7-5 9l-384 230c-1 1-3 1-5 1-1 0-3 0-5-1-3-2-5-5-5-9l0-460c0-4 2-7 5-9z"/>
<glyph glyph-name="df-findprevious-filled" unicode="&#126;" d="M453 495c-4 1-7 1-10 0l-384-230c-3-2-5-5-5-9 0-4 2-7 5-9l384-230c1-1 3-1 5-1 1 0 3 0 5 1 3 2 5 5 5 9l0 460c0 4-2 7-5 9z"/>
<glyph glyph-name="df-folderclosed-filled" unicode="&#57368;" d="M501 427l-294 0-39 39c-2 2-5 3-8 3l-149 0c-6 0-11-4-11-10l0-406c0-6 5-10 11-10l490 0c6 0 11 4 11 10l0 363c0 6-5 11-11 11z"/>
<glyph glyph-name="df-folderopen-filled" unicode="&#57344;" d="M501 427l-294 0-39 39c-2 2-5 3-8 3l-149 0c-6 0-11-4-11-10l0-406c0-6 5-10 11-10l490 0c6 0 11 4 11 10l0 363c0 6-5 11-11 11z m-7-365l-478 0 0 313 478 0z"/>
<glyph glyph-name="df-goback-filled" unicode="&#57345;" d="M492 276l-423 0 144 137c8 9 7 21-1 29-8 8-21 8-29 0l-177-172c-1 0-1-1-1-1-1-1-1-1-2-2 0 0 0-1-1-2 0 0 0-1 0-1-1-1-1-2-1-2 0-1 0-1-1-2 0-1 0-3 0-4 0 0 0 0 0 0 0 0 0 0 0 0 0-1 0-3 0-4 0 0 1-1 1-2 0 0 0-1 1-2 0 0 0-1 0-1 1-1 1-2 1-2 1-1 1-1 2-2 0 0 0-1 1-1l177-172c4-4 10-6 15-6 5 0 10 2 14 6 8 8 9 20 1 29l-144 137 423 0c11 0 20 9 20 20 0 11-9 20-20 20z"/>
<glyph glyph-name="df-goforward-filled" unicode="&#57346;" d="M20 236l423 0-144-137c-8-9-7-21 1-29 8-8 21-8 29 0l177 172c1 0 1 1 1 1 1 1 1 1 2 2 0 0 0 1 1 2 0 0 0 1 0 1 1 1 1 2 1 2 0 1 0 1 1 2 0 1 0 3 0 4 0 0 0 0 0 0 0 0 0 0 0 0 0 1 0 3 0 4 0 0-1 1-1 2 0 0 0 1-1 2 0 0 0 1 0 1-1 1-1 2-1 2-1 1-1 1-2 2 0 0 0 1-1 1l-177 172c-4 4-10 6-15 6-5 0-10-2-14-6-8-8-9-20-1-29l144-137-423 0c-11 0-20-9-20-20 0-11 9-20 20-20z"/>
<glyph glyph-name="df-info-filled" unicode="&#57347;" d="M256 512c-141 0-256-115-256-256 0-141 115-256 256-256 141 0 256 115 256 256 0 141-115 256-256 256z m24-388l-48 0 0 175 48 0 0-175z m-24 213c-16 0-26 11-26 26 0 14 10 25 26 25 16 0 26-11 26-25 0-14-10-26-26-26z"/>
<glyph glyph-name="df-list-filled" unicode="&#57348;" d="M108 428c0-30-24-54-54-54-30 0-54 24-54 54 0 30 24 54 54 54 30 0 54-24 54-54z m76-30l306 0c12 0 22 9 22 21 0 12-10 22-22 22l-306 0c-11 0-21-10-21-22 0-12 10-21 21-21z m-76-142c0-30-24-54-54-54-30 0-54 24-54 54 0 30 24 54 54 54 30 0 54-24 54-54z m382 12l-306 0c-11 0-21-9-21-21 0-12 10-22 21-22l306 0c12 0 22 10 22 22 0 12-10 21-22 21z m-382-184c0-30-24-54-54-54-30 0-54 24-54 54 0 30 24 54 54 54 30 0 54-24 54-54z m382 12l-306 0c-11 0-21-10-21-21 0-12 10-22 21-22l306 0c12 0 22 10 22 22 0 11-10 21-22 21z"/>
<glyph glyph-name="df-menu-filled" unicode="&#57350;" d="M103 362l306 0c12 0 22 10 22 22 0 12-10 22-22 22l-306 0c-12 0-22-10-22-22 0-12 10-22 22-22z m0-128l306 0c12 0 22 10 22 22 0 12-10 22-22 22l-306 0c-12 0-22-10-22-22 0-12 10-22 22-22z m0-128l306 0c12 0 22 10 22 22 0 12-10 22-22 22l-306 0c-12 0-22-10-22-22 0-12 10-22 22-22z"/>
<glyph glyph-name="df-minus-filled" unicode="&#57351;" d="M480 288l0-64-448 0 0 64z"/>
<glyph glyph-name="df-orders-filled" unicode="&#57352;" d="M363 405l10 0 0 64-65 0c0 3-1 6-2 8-1 1-1 2-2 4 0 1-1 3-2 4 0 1-1 2-2 3-1 2-2 3-3 4-1 1-1 2-2 3-1 1-2 2-4 3-1 1-2 2-3 3-1 1-2 2-4 3-1 0-2 1-3 2-1 0-3 1-4 2-1 0-3 1-4 1-1 1-3 1-5 1-1 1-2 1-3 1-3 1-6 1-9 1-3 0-6 0-9-1-1 0-2 0-3-1-2 0-4 0-5-1-1 0-3-1-4-1-1-1-3-2-4-2-1-1-2-2-3-2-2-1-3-2-4-3-1-1-2-2-3-3-2-1-3-2-4-3-1-1-1-2-2-3-1-1-2-2-3-4-1-1-2-2-2-3-1-1-2-3-2-4-1-2-1-3-2-4-1-2-2-5-2-8l-65 0 0-64z m85 64l-53 0 0-405-278 0 0 405-53 0c-6 0-11-4-11-10l0-448c0-6 5-11 11-11l384 0c6 0 11 5 11 11l0 448c0 6-5 10-11 10z m-107-128l-128 0c-6 0-10-4-10-10 0-6 4-11 10-11l128 0c6 0 11 5 11 11 0 6-5 10-11 10z m0-64l-128 0c-6 0-10-4-10-10 0-6 4-11 10-11l128 0c6 0 11 5 11 11 0 6-5 10-11 10z m0-64l-128 0c-6 0-10-4-10-10 0-6 4-11 10-11l128 0c6 0 11 5 11 11 0 6-5 10-11 10z m0-64l-128 0c-6 0-10-4-10-10 0-6 4-11 10-11l128 0c6 0 11 5 11 11 0 6-5 10-11 10z m-170 192l-11 0c-6 0-11-4-11-10 0-6 5-11 11-11l11 0c6 0 10 5 10 11 0 6-4 10-10 10z m0-64l-11 0c-6 0-11-4-11-10 0-6 5-11 11-11l11 0c6 0 10 5 10 11 0 6-4 10-10 10z m0-64l-11 0c-6 0-11-4-11-10 0-6 5-11 11-11l11 0c6 0 10 5 10 11 0 6-4 10-10 10z m0-64l-11 0c-6 0-11-4-11-10 0-6 5-11 11-11l11 0c6 0 10 5 10 11 0 6-4 10-10 10z"/>
<glyph glyph-name="df-print-filled" unicode="&#57353;" d="M459 363l-406 0c-29 0-53-24-53-54l0-128c0-29 24-53 53-53l54 0 0-96c0-6 4-11 10-11l278 0c6 0 10 5 10 11l0 96 54 0c29 0 53 24 53 53l0 128c0 30-24 54-53 54z m-384-107c-18 0-32 14-32 32 0 18 14 32 32 32 17 0 32-14 32-32 0-18-15-32-32-32z m309-213l-256 0 0 149 256 0z m-267 341l278 0c6 0 10 5 10 11l0 21c0 3-1 6-3 8l-64 64c-2 2-4 3-7 3l-214 0c-6 0-10-5-10-11l0-85c0-6 4-11 10-11z m214 96l64-64-64 0z"/>
<glyph glyph-name="df-products-filled" unicode="&#57354;" d="M171 85c0-23-19-42-43-42-24 0-43 19-43 42 0 24 19 43 43 43 24 0 43-19 43-43z m234 0c0-23-19-42-42-42-24 0-43 19-43 42 0 24 19 43 43 43 23 0 42-19 42-43z m96 384l-54 0c-11 0-20-8-21-18l-8-58c0-5-5-9-10-9l-365 0c-14 0-27-6-35-17-8-11-10-25-6-38l33-107c6-18 22-30 41-30l308 0c6 0 11-5 11-11 0-6-5-10-11-10l-299 0c-6 0-10-5-10-11 0-6 4-11 10-11l299 0c17 0 31 14 32 31 0 0 0 0 0 0l0 0 0 1 24 210 7 57 54 0c6 0 11 5 11 11 0 6-5 10-11 10z"/>
<glyph glyph-name="df-recordadd-filled" unicode="&#57355;" d="M318 233c-7 3-14 5-22 8-13 4-27 8-40 13l0 40c10 7 29 25 32 63 8 5 13 15 13 29 0 12-4 22-10 28 5 13 13 36 7 59-7 29-47 39-79 39-29 0-64-8-76-30-11 1-20-2-26-8-14-16-6-45-2-61-2-2-4-5-6-8-3-5-4-12-4-19 0-14 5-25 13-29 2-38 21-56 31-63l0-40c-13-5-27-9-40-13-50-17-90-30-98-55-10-31-11-88-11-90 0-3 1-6 3-8 2-2 5-3 8-3l249 0c-3 11-4 21-4 32 0 49 25 91 62 116z m77 2c-65 0-118-53-118-118 0-64 53-117 118-117 64 0 117 53 117 117 0 65-53 118-117 118z m53-128l-43 0 0-43c0-6-4-11-10-11-6 0-11 5-11 11l0 43-43 0c-6 0-10 4-10 10 0 6 4 11 10 11l43 0 0 43c0 6 5 10 11 10 6 0 10-4 10-10l0-43 43 0c6 0 11-5 11-11 0-6-5-10-11-10z"/>
<glyph glyph-name="df-recordlookup-filled" unicode="&#57356;" d="M340 225c-13 5-28 10-44 16-13 4-27 8-40 13l0 40c10 7 29 25 32 63 8 5 13 15 13 29 0 12-4 22-10 28 5 13 13 36 7 59-7 29-47 39-79 39-29 0-64-8-76-30-11 1-20-2-26-8-14-16-6-45-2-61-2-2-4-5-6-8-3-5-4-12-4-19 0-14 5-25 13-29 2-38 21-56 31-63l0-40c-13-5-27-9-40-13-50-17-90-30-98-55-10-31-11-88-11-90 0-3 1-6 3-8 2-2 5-3 8-3l275 0c-5 13-9 28-9 43 0 43 26 81 63 97z m169-207l-42 43-16 15c12 14 18 32 18 52 0 47-38 85-85 85-47 0-85-38-85-85 0-47 38-85 85-85 20 0 38 6 52 18l15-16 43-42c2-2 5-3 7-3 3 0 6 1 8 3 4 4 4 11 0 15z m-125 46c-35 0-64 29-64 64 0 35 29 64 64 64 35 0 64-29 64-64 0-35-29-64-64-64z"/>
<glyph glyph-name="df-recordremove-filled" unicode="&#57357;" d="M318 233c-7 3-14 5-22 8-13 4-27 8-40 13l0 40c10 7 29 25 32 63 8 5 13 15 13 29 0 12-4 22-10 28 5 13 13 36 7 59-7 29-47 39-79 39-29 0-64-8-76-30-11 1-20-2-26-8-14-16-6-45-2-61-2-2-4-5-6-8-3-5-4-12-4-19 0-14 5-25 13-29 2-38 21-56 31-63l0-40c-13-5-27-9-40-13-50-17-90-30-98-55-10-31-11-88-11-90 0-3 1-6 3-8 2-2 5-3 8-3l249 0c-3 11-4 21-4 32 0 49 25 91 62 116z m77 2c-65 0-118-53-118-118 0-64 53-117 118-117 64 0 117 53 117 117 0 65-53 118-117 118z m43-148c5-4 5-11 0-15-2-2-4-3-7-3-3 0-6 1-8 3l-30 30-30-30c-2-2-5-3-8-3-2 0-5 1-7 3-4 4-4 11 0 15l30 30-30 31c-4 4-4 10 0 15 4 4 11 4 15 0l30-31 30 31c4 4 11 4 15 0 5-5 5-11 0-15l-30-31z"/>
<glyph glyph-name="df-remove-filled" unicode="&#57358;" d="M256 512c-141 0-256-115-256-256 0-141 115-256 256-256 141 0 256 115 256 256 0 141-115 256-256 256z m102-335c6-6 6-17 0-23-6-6-17-6-23 0l-79 79-79-79c-6-6-17-6-23 0-6 6-6 17 0 23l79 79-79 79c-6 6-6 17 0 23 6 6 17 6 23 0l79-79 79 79c6 6 17 6 23 0 6-6 6-17 0-23l-79-79z"/>
<glyph glyph-name="df-report-filled" unicode="&#57359;" d="M149 128l64 0 0-43-64 0z m86 0l128 0 0-43-128 0z m0 128l128 0 0-43-128 0z m0-64l128 0 0-43-128 0z m-86 64l64 0 0-43-64 0z m0-64l64 0 0-43-64 0z m86 128l128 0 0-43-128 0z m-86 0l64 0 0-43-64 0z m296 61l-128 128c-2 2-5 3-8 3l-234 0c-6 0-11-5-11-11l0-490c0-6 5-11 11-11l362 0c6 0 11 5 11 11l0 362c0 3-1 6-3 8z m-61-317l-256 0 0 277 256 0z m-75 309l0 128 128-128z"/>
<glyph glyph-name="df-salesperson-filled" unicode="&#57360;" d="M304 427c0-47-38-86-85-86-47 0-86 39-86 86 0 47 39 85 86 85 47 0 85-38 85-85z m43-107l-108 0 12-143-32-32-33 32 12 143-107 0 0-11c0-75 27-136 74-166l0-143 107 0 0 143c48 30 75 91 75 166z m42-149l0 21-21 0 0-21-32 0 0-171 85 0 0 171z"/>
<glyph glyph-name="df-save-filled" unicode="&#57361;" d="M256 512c-141 0-256-115-256-256 0-141 115-256 256-256 141 0 256 115 256 256 0 141-115 256-256 256z m114-189l-160-149c-2-2-5-3-7-3-3 0-6 1-8 3l-53 53c-4 4-4 11 0 15 4 4 11 4 15 0l46-46 152 142c5 4 11 4 15 0 4-4 4-11 0-15z"/>
<glyph glyph-name="df-settings-filled" unicode="&#57362;" d="M504 201l-38 22c2 11 2 22 2 33 0 11-1 22-2 33l38 22c7 4 10 14 6 21l-61 104c-2 4-5 6-9 7-4 1-8 1-12-1l-37-22c-17 14-34 25-57 33l0 44c0 8-7 15-15 15l-122 0c-8 0-15-7-15-15l0-44c-21-7-40-18-59-33l-39 22c-7 4-17 1-21-6l-61-104c-2-4-2-8-1-12 1-3 3-7 7-9l38-22c-2-11-3-22-3-33 0-11 1-22 3-33l-38-22c-8-4-10-14-6-21l61-104c4-7 13-10 20-6l40 22c19-15 38-26 59-33l0-44c0-8 7-15 15-15l122 0c8 0 15 7 15 15l0 44c23 8 40 19 57 33l38-22c3-2 7-2 11-1 4 1 7 3 10 7l60 104c4 7 2 17-6 21z m-248-50c-59 0-106 47-106 105 0 58 47 105 106 105 58 0 106-47 106-105 0-58-48-105-106-105z"/>
<glyph glyph-name="df-submenuhorizontal-filled" unicode="&#57363;" d="M384 256c0-35 29-64 64-64 35 0 64 29 64 64 0 35-29 64-64 64-35 0-64-29-64-64z m-64 0c0 35-29 64-64 64-35 0-64-29-64-64 0-35 29-64 64-64 35 0 64 29 64 64z m-192 0c0 35-29 64-64 64-35 0-64-29-64-64 0-35 29-64 64-64 35 0 64 29 64 64z"/>
<glyph glyph-name="df-submenuvertical-filled" unicode="&#57364;" d="M256 384c35 0 64 29 64 64 0 35-29 64-64 64-35 0-64-29-64-64 0-35 29-64 64-64z m0-64c-35 0-64-29-64-64 0-35 29-64 64-64 35 0 64 29 64 64 0 35-29 64-64 64z m0-192c-35 0-64-29-64-64 0-35 29-64 64-64 35 0 64 29 64 64 0 35-29 64-64 64z"/>
<glyph glyph-name="df-theme-filled" unicode="&#57365;" d="M437 418c-48 49-113 75-181 75-68 0-133-26-181-75-100-100-100-262 0-362 10-10 23-15 38-15 14 0 27 5 37 15 21 21 21 55 0 76-4 4-4 11 0 15 4 4 11 4 15 0l91-91c24-24 56-37 91-37 34 0 66 13 90 37 100 100 100 262 0 362z m-196-75c-13-13-33-13-45 0-13 12-13 33 0 45 12 13 32 13 45 0 12-12 12-33 0-45z m83 23c12 12 33 12 45 0 13-13 13-33 0-46-12-12-33-12-45 0-13 13-13 33 0 46z m53-265c-17-16-44-16-61 0-16 17-16 44 0 61 17 16 44 16 61 0 16-17 16-44 0-61z m44 121c-9-8-22-8-31 0-8 8-8 22 0 30 9 9 22 9 31 0 8-8 8-22 0-30z"/>
<glyph glyph-name="df-upload-filled" unicode="&#57366;" d="M448 302l0 2c0 80-64 144-144 144-53 0-100-29-124-73-11 6-23 9-36 9-44 0-80-36-80-80l0-2c-38-22-64-63-64-110 0-70 58-128 128-128l96 0 0 128-64 0 96 128 96-128-64 0 0-128 96 0c70 0 128 58 128 128 0 47-26 88-64 110z"/>
<glyph glyph-name="df-user-filled" unicode="&#57367;" d="M256 512c-141 0-256-115-256-256 0-68 26-132 74-180 48-49 113-76 182-76 69 0 134 27 182 76 48 48 74 112 74 180 0 141-115 256-256 256z m173-414c-23 13-57 25-92 38-9 3-19 7-28 10l0 40c11 6 30 23 32 62 8 5 14 16 14 29 0 13-5 23-12 28 6 16 15 46 9 71-8 30-48 40-80 40-29 0-64-8-76-31-15 1-24-6-28-11-13-18-4-51 1-69-7-5-12-15-12-28 0-13 6-24 14-29 2-39 21-56 32-62l0-40c-9-3-17-6-25-9-35-13-71-26-94-40-40 44-63 100-63 159 0 129 106 235 235 235 129 0 235-106 235-235 0-59-22-115-62-158z"/>
<glyph glyph-name="df-lookup-v2-outlined" unicode="&#79;" d="M486 42l-147 147c29 32 45 73 45 121 0 100-80 183-182 183-103 0-180-83-180-186 0-102 80-179 183-179 45 0 89 16 121 45l148-147c3-4 6-4 6-4 3 0 6 0 6 4 4 3 4 9 0 16z m-441 265c0 90 70 160 160 160 89 0 160-70 160-160 0-89-71-160-160-160-90 0-160 74-160 160z"/>
<glyph glyph-name="df-lookup-v2-filled" unicode="&#57349;" d="M483 54l-109 109c29 35 45 80 45 128 0 109-89 199-198 199-109 0-199-90-199-199 0-109 90-198 199-198 48 0 93 16 128 45l109-109c3-3 9-7 12-7 4 0 10 4 13 7 7 6 7 19 0 25z m-262 74c-90 0-163 74-163 163 0 90 73 163 163 163 89 0 163-73 163-163 0-89-74-163-163-163z"/>
<glyph glyph-name="df-calendar-v2-filled" unicode="&#37;" d="M470 467l-60 0 0 45-45 0 0-45-218 0 0 45-45 0 0-45-60 0c-13 0-20-9-20-22l0-42 471 0 0 42c-3 13-10 22-23 22z m-448-445c0-12 10-22 20-22l428 0c13 0 20 10 20 22l0 368-468 0z m346 324l83 0 0-87-83 0z m0-109l83 0 0-87-83 0z m0-106l83 0 0-86-83 0z m-102 215l83 0 0-87-83 0z m0-109l83 0 0-87-83 0z m0-106l83 0 0-86-83 0z m-103 215l83 0 0-87-83 0z m0-109l83 0 0-87-83 0z m0-106l83 0 0-86-83 0z m-102 215l83 0 0-87-83 0z m0-109l83 0 0-87-83 0z m0-106l83 0 0-86-83 0z"/>
<glyph glyph-name="df-uncompleted-outlined" unicode="&#92;" d="M431 452l-419 0c-7 0-12-5-12-11l0-429c0-7 5-12 12-12l419 0c6 0 11 5 11 12l0 429c0 6-5 11-11 11z m-12-428l-396 0 0 405 396 0z"/>
<glyph glyph-name="df-unsaved-outlined" unicode="&#57369;" d="M256 0c-141 0-256 115-256 256 0 141 115 256 256 256 141 0 256-115 256-256 0-141-115-256-256-256z m0 491c-129 0-235-106-235-235 0-129 106-235 235-235 129 0 235 106 235 235 0 129-106 235-235 235z"/>
<glyph glyph-name="df-uncompleted-filled" unicode="&#57370;" d="M444 435c-1 11-10 20-21 20l-400 0c-13 0-23-10-23-23l0-409c0-13 10-23 23-23l400 0c1 0 1 0 2 1 11 1 20 10 20 22l0 410c0 1-1 1-1 2z m-44-25l0-364-355 0 0 364z"/>
<glyph glyph-name="df-unsaved-filled" unicode="&#57371;" d="M256 512c-141 0-256-115-256-256 0-141 115-256 256-256 141 0 256 115 256 256 0 141-115 256-256 256z"/>
<glyph glyph-name="df-email-outlined" unicode="&#57372;" d="M463 432l-414 0c-27 0-49-23-49-50l0-252c0-28 22-50 49-50l414 0c27 0 49 22 49 50l0 252c0 27-22 50-49 50z m-6-30l-201-161-201 161z m25-272c0-11-9-20-19-20l-414 0c-10 0-19 9-19 20l0 252c0 0 0 1 0 1l217-173c2-2 6-3 9-3 3 0 7 1 9 3l217 173c0 0 0-1 0-1l0-252z"/>
<glyph glyph-name="df-help-outlined" unicode="&#57373;" d="M256 0c-141 0-256 115-256 256 0 141 115 256 256 256 141 0 256-115 256-256 0-141-115-256-256-256z m0 482c-125 0-226-101-226-226 0-125 101-226 226-226 125 0 226 101 226 226 0 125-101 226-226 226z m1-83c23 0 43-10 61-30 13-16 19-33 19-52 0-24-10-45-32-64-21-12-32-29-32-52-2-10-6-14-14-14-9 2-14 6-14 12l0 5c0 30 16 54 47 73 12 12 18 26 18 42 0 20-11 36-32 48-10 3-17 4-23 4-21 0-37-11-49-33l-5-24c-4-6-8-8-12-8-10 2-14 6-14 13 0 26 12 48 37 67 16 9 31 13 45 13z m-1-248l3 0c9 0 14-5 18-15l0-5c-2-12-9-18-20-18-12 3-18 9-18 18 0 11 6 18 17 20z"/>
<glyph glyph-name="df-sales-person-outlined" unicode="&#57374;" d="M179 241c1-5-2-11-7-12l-3-1c3-2 6-4 9-6l0 8 19 0 0-15c7-2 13-4 17-4 5 0 11 2 17 4l0 15 19 0 0-8c4 2 7 4 10 6l-3 1c-5 2-8 7-7 12 2 5 7 8 12 7l17-5c17 15 30 34 32 58 12 4 21 17 21 34 0 5-1 10-3 14l0-2c-1-5-5-8-9-8-1 0-1 0-2 0-5 1-8 6-8 11l3 19c-1 0-2 1-3 1l-7 38c-1 4-5 7-10 7-52 0-60 15-66 24-2 3-4 6-6 9-4 3-10 3-13 0-3-3-5-6-6-9-6-9-15-24-67-24-4 0-8-3-9-7l-8-38c-1 0-1-1-2-1l2-19c1-5-3-10-8-11-5-1-10 3-11 8l0 2c-1-4-2-9-2-14 0-17 8-30 20-34 3-24 16-43 33-58l17 4c5 2 10-1 12-6z m-43 68c0 5-5 9-10 9-7 0-10 11-10 17 0 7 3 17 10 17 5 0 9 3 10 8l7 36c45 2 62 14 71 28 10-14 26-26 72-28l7-36c1-5 5-8 9-8 8 0 11-10 11-17 0-6-3-17-11-17-5 0-9-4-9-9 0-48-59-79-79-79-20 0-78 31-78 79z m-26 30c5 1 9 6 8 11l-2 19-7 46c0 1-2 27 18 49 17 19 47 29 87 29 41 0 70-10 88-29 19-21 17-48 17-48l-6-47-3-19c0-5 3-10 8-11 1 0 1 0 2 0 4 0 8 3 9 8l0 2 9 65c0 1 3 35-22 63-21 23-55 35-102 35-46 0-80-12-102-35-25-28-22-62-22-64l9-64 0-2c1-5 6-9 11-8z m163-233c0 0 0 1 0 1l-1 0z m2-13c-1-3-4-5-8-5l12 0c-1 3-2 5-3 8 0-1 0-2-1-3z m-122 0c-2 3-1 7 1 10l2 4-135 0 0 35c0 25 16 48 39 56l109 30 3 1c5 1 8 7 7 12-2 5-7 8-12 6l-17-4-96-27c-31-11-52-41-52-74l0-44c0-6 5-10 10-10l150 0c-4 0-7 2-9 5z m97 148c-1-5 2-10 7-12l3-1 56-15c8 6 17 9 26 12l-63 18-17 5c-5 1-10-2-12-7z m25-148c1 1 1 2 1 3-1 3-2 6-3 10l-1 1-42 64c-5-2-10-4-16-4-5 0-10 2-15 4l-43-64-2-4c-2-3-3-7-1-10 2-3 5-5 8-5l106 0c4 0 7 2 8 5z m-96 14l35 53 35-53z m71 96l0 27-19 0 0-27c0-9-7-17-17-17-9 0-17 8-17 17l0 27-19 0 0-27c0-14 9-26 21-32 5-2 10-4 15-4 6 0 11 2 16 4 12 6 20 18 20 32z m257-185l-58 58c11 15 18 33 18 53 0 47-38 85-85 85-48 0-86-38-86-85 0-48 38-86 86-86 19 0 37 7 52 18l57-58c3-2 5-3 8-3 3 0 5 1 8 3 4 4 4 11 0 15z m-190 111c0 35 29 64 65 64 35 0 64-29 64-64 0-18-7-34-19-45 0 0 0 0 0-1-1 0-1 0-1 0-11-12-27-19-44-19-36 0-65 29-65 65z"/>
<glyph glyph-name="df-email-filled" unicode="&#57375;" d="M505 408l-242-196c-2-2-4-3-7-3-3 0-5 1-7 3l-242 196c-4-7-7-15-7-24l0-256c0-26 21-47 47-47l418 0c26 0 47 21 47 47l0 256c0 9-3 17-7 24z m-17 16c-6 4-14 7-23 7l-418 0c-9 0-17-3-23-7l232-188z"/>
<glyph glyph-name="df-help-filled" unicode="&#57376;" d="M256 512c-141 0-256-115-256-256 0-141 115-256 256-256 141 0 256 115 256 256 0 141-115 256-256 256z m21-381c-2-12-9-18-20-18-12 3-18 9-18 18 0 11 6 18 17 20l3 0c9 0 14-5 18-15l0-5z m28 122c-21-12-32-29-32-52-2-10-6-14-14-14-9 2-14 6-14 12l0 5c0 30 16 54 47 73 12 12 18 26 18 42 0 20-11 36-32 48-10 3-17 4-23 4-21 0-37-11-49-33l-5-24c-4-6-8-8-12-8-10 2-14 6-14 13 0 26 12 48 37 67 16 9 31 13 45 13 23 0 43-10 61-30 13-16 19-33 19-52 0-24-10-45-32-64z"/>
<glyph glyph-name="df-sales-person-filled" unicode="&#57377;" d="M509 20l-42 42-15 15c11 14 18 32 18 52 0 46-38 85-85 85-47 0-85-39-85-85 0-47 38-85 85-85 19 0 37 7 52 18l15-15 42-42c2-3 5-4 7-4 3 0 6 1 8 4 4 4 4 10 0 15z m-124 45c-35 0-64 29-64 64 0 35 29 63 64 63 35 0 63-28 63-63 0-35-28-64-63-64z m-41 159l-71 20c16 15 30 35 32 58 12 5 20 17 20 34 0 5-1 10-2 14l9 64c0 1 3 34-22 62-21 23-55 35-101 35-45 0-79-12-100-35-25-28-22-61-22-63l9-63c-1-4-2-9-2-14 0-17 8-29 20-34 2-24 16-44 32-59l-95-25c-31-12-51-41-51-74l0-52 151 0 44 81c-12 6-21 18-21 32l0 19c14-6 26-10 35-10 9 0 22 4 35 10l0-19c0-14-8-26-20-32l44-81 16 0c-5 11-8 24-8 37 0 44 29 81 68 95z m-135 7c-23 0-78 33-78 79 0 5-4 9-9 9-8 0-11 11-11 17 0 6 3 17 11 17 4 0 8 3 9 7l7 37c46 1 62 14 71 28 10-14 26-27 72-28l7-37c1-4 4-7 9-7 8 0 11-11 11-17 0-6-3-17-11-17-5 0-9-4-9-9 0-46-55-79-79-79z"/>
<glyph glyph-name="df-check2-filled" unicode="&#57378;" d="M409 378c-10 8-24 6-32-3l-150-189-94 96c-9 8-23 8-32 0-8-9-8-24 0-33l112-113c4-5 10-7 16-7 0 0 0 0 1 0 6 0 12 3 16 8l166 209c8 10 6 24-3 32z"/>
<glyph glyph-name="df-check2-outlined" unicode="&#57379;" d="M233 140c-3 0-6 1-8 3l-117 119c-4 5-4 12 0 17 5 5 12 5 17 0l107-110 155 199c4 5 11 6 16 2 5-4 6-12 2-17l-163-209c-2-3-5-4-9-4 0 0 0 0 0 0z"/>
<glyph glyph-name="df-exit" unicode="&#57380;" d="M304 132c-9 0-16-7-16-15l0-40-218 0 0 358 218 0 0-47c0-9 7-16 16-16 9 0 16 7 16 16l0 63c0 8-7 15-16 15l-250 0c-8 0-15-7-15-15l0-390c0-8 7-15 15-15l250 0c9 0 16 7 16 15l0 56c0 8-7 15-16 15z m169 116c0 1 0 2 0 2 0 0 0 1 0 1 0 1-1 2-1 3 0 0 0 1-1 1 0 1-1 1-1 2-1 1-1 1-1 2l-94 94c-6 6-16 6-22 0-6-6-6-16 0-22l67-67-259 0c-8 0-15-7-15-16 0-9 7-16 15-16l260 0-69-74c-5-7-5-17 1-23 3-3 7-3 10-3 4 0 9 1 12 4l94 102c0 0 0 1 0 1 0 0 1 0 1 1 0 1 1 1 1 2 0 1 1 1 1 1 0 1 0 1 1 2 0 1 0 1 0 2 0 0 0 1 0 1 0-1 0 0 0 0z"/>
<glyph glyph-name="df-download-outlined" unicode="&#57383;" d="M512 256c0 141-115 256-256 256-141 0-256-115-256-256 0-141 115-256 256-256 141 0 256 115 256 256z m-490 0c0 129 105 234 234 234 129 0 234-105 234-234 0-129-105-234-234-234-129 0-234 105-234 234z m245 145l-22 0 0-290 22 0z m-19-282l16 0-123 123-15-16 130-130 130 130-15 16z"/>
<glyph glyph-name="df-align-center" unicode="&#57384;" d="M11 53l490 0 0-21-490 0z m42 427l406 0 0-21-406 0z m75-107l256 0 0-21-256 0z m-117-106l490 0 0-22-490 0z m85-107l320 0 0-21-320 0z"/>
<glyph glyph-name="df-align-left" unicode="&#57385;" d="M11 53l490 0 0-21-490 0z m0 427l426 0 0-21-426 0z m0-107l341 0 0-21-341 0z m0-106l490 0 0-22-490 0z m0-107l405 0 0-21-405 0z"/>
<glyph glyph-name="df-align-right" unicode="&#57386;" d="M11 53l490 0 0-21-490 0z m85 427l405 0 0-21-405 0z m64-107l341 0 0-21-341 0z m-149-106l490 0 0-22-490 0z m85-107l405 0 0-21-405 0z"/>
<glyph glyph-name="df-bold" unicode="&#57387;" d="M376 270c24 25 38 67 38 104 0 75-58 128-138 128l-187 0c-16 0-30-14-30-29 0-16 14-30 30-30l29 0 0-374-29 0c-16 0-30-14-30-30 0-15 14-29 30-29l216 0c81 0 148 67 148 148 0 51-28 90-77 112z m-71-201l-128 0 0 157 128 0c55 0 89-25 89-68 0-50-40-89-89-89z m-128 217l0 157 99 0c47 0 78-27 78-69 0-41-33-88-78-88z"/>
<glyph glyph-name="df-file-excel" unicode="&#57388;" d="M335 512l-292 0 0-512 426 0 0 378z m6-36l92-92-92 0z m-277-455l0 470 256 0 0-128 128 0 0-342z m192 203l-21 0 0-117 64 0 0 21-43 0z m119-43c0 0-2 0-4 0-10 2-15 5-15 15 0 11 7 17 15 17 9 0 15-6 15-17l21 2c-2 22-17 37-36 37-21 0-36-17-36-39 0-19 11-32 34-36 0 0 2 0 4 0 11-2 15-4 15-15 0-11-6-17-15-17-8 0-15 6-15 17l-21-2c2-21 17-36 36-36 22 0 37 17 37 38 0 19-11 32-35 36z m-202 49l-24-38-23 38-17-12 28-47-28-47 17-13 23 38 24-38 17 13-28 47 28 47z"/>
<glyph glyph-name="df-header-active" unicode="&#57389;" d="M20 512l0-512 472 0 0 512z m21-246l0 103 430 0 0-103z m430-20l0-103-430 0 0 103z m-430-226l0 103 430 0 0-103z"/>
<glyph glyph-name="df-header-unactive" unicode="&#57390;" d="M20 512l0-512 472 0 0 512z m451-20l0-103-430 0 0 103z m-430-226l0 103 430 0 0-103z m430-20l0-103-430 0 0 103z m-430-226l0 103 430 0 0-103z"/>
<glyph glyph-name="df-regular" unicode="&#57391;" d="M367 267c30 26 49 75 49 117 0 74-58 128-139 128l-202 0c-12 0-22-10-22-21 0-12 10-22 22-22l42 0 0-426-42 0c-12 0-22-10-22-22 0-11 10-21 22-21l234 0c83 0 150 67 150 149 0 60-37 98-92 118z m-207 202l117 0c57 0 96-35 96-85 0-53-43-107-96-107l-117 0z m149-426l-149 0 0 192 149 0c62 0 107-30 107-86 0-58-48-106-107-106z"/>
<glyph glyph-name="df-save" unicode="&#57392;" d="M203 196l-45 47-17-17 62-60 166 156-13 17z m53 316c-141 0-256-115-256-256 0-141 115-256 256-256 141 0 256 115 256 256 0 141-115 256-256 256z m0-491c-130 0-235 105-235 235 0 130 105 235 235 235 130 0 235-105 235-235 0-130-105-235-235-235z"/>
<glyph glyph-name="df-save-all" unicode="&#57393;" d="M213 162l-34 36-17-17 51-49 135 126-13 17z m0 85l-34 37-17-17 51-49 135 125-13 18z m43 265c-141 0-256-115-256-256 0-141 115-256 256-256 141 0 256 115 256 256 0 141-115 256-256 256z m0-491c-130 0-235 105-235 235 0 130 105 235 235 235 130 0 235-105 235-235 0-130-105-235-235-235z"/>
<glyph glyph-name="df-thin" unicode="&#57394;" d="M341 273c39 21 64 64 64 111 0 70-57 128-128 128l-202 0 0-21 53 0 0-470-53 0 0-21 234 0c77 0 139 62 139 139 0 66-45 119-107 134z m-64 218c60 0 107-47 107-107 0-60-47-107-107-107l-128 0 0 214z m32-470l-160 0 0 235 160 0c64 0 118-53 118-117 0-64-54-118-118-118z"/>
<glyph glyph-name="df-undo" unicode="&#57395;" d="M384 418c-55 41-124 56-192 45-60-11-111-38-149-81l0 119-22 0 0-160 160 0 0 22-128 0c37 40 86 68 141 79 62 10 126-5 177-41 62-45 98-113 98-190 0-77-34-145-96-190l13-17c66 49 105 126 105 209 0 81-41 156-107 205z"/>
<glyph glyph-name="df-refresh" unicode="&#57396;" d="M91 503l-18 0 0-137 137 0 0 18-119 0z m-1-133c64 90 192 111 283 46 63-45 93-120 82-195l18-3c12 82-21 164-90 213-98 70-238 48-308-51z m331-361l18 0 0 137-137 0 0-18 119 0z m1 133c-64-90-192-111-283-46-63 45-93 121-82 195l-18 3c-12-81 21-163 90-213 98-70 238-48 308 51z"/>
<glyph glyph-name="df-save-floppy" unicode="&#57382;" d="M71 512l-71-71 0-441 512 0 0 512z m356-132l0 106 59 0 0-460-59 0 0 63-342 0 0-63-59 0 0 405 55 55 4 0 0-106z m-317 26l0 80 292 0 0-80z m0-380l0 38 292 0 0-38z m146 338c53 0 97-44 97-97 0-55-44-98-97-98-53 0-97 43-97 98 0 53 44 97 97 97z m0-169c39 0 72 32 72 72 0 39-33 72-72 72-39 0-72-33-72-72 0-40 33-72 72-72z"/>
<glyph glyph-name="df-save-as-floppy" unicode="&#57381;" d="M62 445l-62-62 0-383 445 0 0 445z m309-115l0 92 51 0 0-399-51 0 0 55-297 0 0-55-51 0 0 352 47 47 4 0 0-92z m-275 23l0 69 253 0 0-69z m395 138l-427 0 0 21 448 0 0-448-21 0z m-395-468l0 33 253 0 0-33z m126 293c47 0 85-38 85-84 0-47-38-85-85-85-46 0-84 38-84 85 0 46 38 84 84 84z m0-147c34 0 63 28 63 63 0 34-29 62-63 62-34 0-62-28-62-62 0-35 28-63 62-63z"/>
<glyph glyph-name="df-save-as" unicode="&#57397;" d="M176 282l-14-15 48-48 130 122-14 15-116-108z m75-272c-136 0-246 110-246 246 0 136 110 246 246 246 136 0 246-110 246-246 0-136-110-246-246-246z m0 21c125 0 225 101 225 225 0 124-100 225-225 225-124 0-225-101-225-225 0-124 101-225 225-225z m-113 123l41 0 0 20-41 0z m62 0l41 0 0 20-41 0z m61 0l41 0 0 20-41 0z m62 0l41 0 0 20-41 0z"/>
</font>
</defs>
</svg>
